<svg width="26" height="25" viewBox="0 0 26 25" fill="none" xmlns="http://www.w3.org/2000/svg">
<path fill-rule="evenodd" clip-rule="evenodd" d="M2 12.5C2 6.14873 7.14873 1 13.5 1C19.8513 1 25 6.14873 25 12.5C25 18.8513 19.8513 24 13.5 24C7.14873 24 2 18.8513 2 12.5ZM13.5009 6.56196C13.9151 6.56196 14.2509 6.89774 14.2509 7.31196V11.75H18.6883C19.1025 11.75 19.4383 12.0858 19.4383 12.5C19.4383 12.9142 19.1025 13.25 18.6883 13.25H14.2509V17.6879C14.2509 18.1021 13.9151 18.4379 13.5009 18.4379C13.0867 18.4379 12.7509 18.1021 12.7509 17.6879V13.25H8.31239C7.89817 13.25 7.56239 12.9142 7.56239 12.5C7.56239 12.0858 7.89817 11.75 8.31239 11.75H12.7509V7.31196C12.7509 6.89774 13.0867 6.56196 13.5009 6.56196Z" fill="url(#paint0_linear_839_9281)"/>
<defs>
<linearGradient id="paint0_linear_839_9281" x1="2.5" y1="4.5" x2="20.5" y2="24" gradientUnits="userSpaceOnUse">
<stop stop-color="#212121"/>
<stop offset="1" stop-color="#878787"/>
</linearGradient>
</defs>
</svg>
