<svg width="25" height="25" viewBox="0 0 25 25" fill="none" xmlns="http://www.w3.org/2000/svg">
<path d="M24 12.5C24 10.2255 23.3255 8.00211 22.0619 6.11095C20.7983 4.21978 19.0022 2.7458 16.9009 1.87539C14.7995 1.00498 12.4872 0.777244 10.2565 1.22097C8.02569 1.6647 5.97658 2.75997 4.36828 4.36828C2.75997 5.97658 1.6647 8.02569 1.22097 10.2565C0.777244 12.4872 1.00498 14.7995 1.87539 16.9009C2.7458 19.0022 4.21978 20.7983 6.11095 22.0619C8.00211 23.3255 10.2255 24 12.5 24V19.3078C11.1535 19.3078 9.83731 18.9086 8.71777 18.1605C7.59823 17.4125 6.72565 16.3492 6.21038 15.1053C5.69511 13.8613 5.56029 12.4925 5.82297 11.1719C6.08566 9.85127 6.73404 8.63823 7.68613 7.68613C8.63823 6.73404 9.85127 6.08566 11.1719 5.82297C12.4925 5.56029 13.8613 5.69511 15.1053 6.21038C16.3492 6.72565 17.4125 7.59823 18.1605 8.71777C18.9086 9.83731 19.3078 11.1535 19.3078 12.5H24Z" fill="#484747"/>
<path d="M12.5 24C14.0102 24 15.5056 23.7025 16.9009 23.1246C18.2961 22.5467 19.5639 21.6996 20.6317 20.6317C21.6996 19.5639 22.5467 18.2961 23.1246 16.9009C23.7025 15.5056 24 14.0102 24 12.5H19.3078C19.3078 13.394 19.1318 14.2793 18.7896 15.1053C18.4475 15.9312 17.946 16.6817 17.3139 17.3139C16.6817 17.946 15.9312 18.4475 15.1053 18.7896C14.2793 19.1318 13.394 19.3078 12.5 19.3078V24Z" fill="#878787"/>
</svg>
