<svg width="45" height="45" viewBox="0 0 45 45" fill="none" xmlns="http://www.w3.org/2000/svg">
<path d="M12.0122 21.7327C17.9189 19.1598 21.8566 17.4635 23.8255 16.6439C29.4537 14.3037 30.6217 13.8973 31.3845 13.8837C31.5523 13.8808 31.9258 13.9223 32.1695 14.1195C32.3721 14.2857 32.4292 14.5104 32.4577 14.6681C32.483 14.8257 32.5178 15.185 32.4893 15.4654C32.1855 18.6689 30.8655 26.4425 30.1944 30.0305C29.9127 31.5487 29.3524 32.0577 28.8111 32.1074C27.6335 32.2157 26.7409 31.33 25.6013 30.5832C23.8192 29.4142 22.8126 28.6868 21.0811 27.5463C19.0806 26.2282 20.3784 25.5036 21.5179 24.3198C21.8155 24.0099 27.0004 19.295 27.0985 18.8673C27.1112 18.8138 27.1239 18.6144 27.0036 18.5093C26.8865 18.4039 26.7123 18.44 26.5857 18.4685C26.4053 18.509 23.5596 20.3918 18.0391 24.1166C17.2319 24.6718 16.5007 24.9424 15.8423 24.9282C15.1206 24.9127 13.7279 24.5192 12.6928 24.183C11.4266 23.7706 10.4168 23.5525 10.5054 22.852C10.5497 22.4873 11.0531 22.1141 12.0122 21.7327Z" fill="#50A8EB"/>
</svg>
