<svg width="45" height="45" viewBox="0 0 45 45" fill="none" xmlns="http://www.w3.org/2000/svg">
<g clip-path="url(#clip0_1064_480)">
<path d="M45 22.4993C45 10.0729 34.9264 -0.000732422 22.5 -0.000732422C10.0736 -0.000732422 0 10.0729 0 22.4993C0 34.9257 10.0736 44.9993 22.5 44.9993C34.9264 44.9993 45 34.9257 45 22.4993Z" fill="white"/>
<path d="M45 22.4993C45 10.0729 34.9264 -0.000732422 22.5 -0.000732422C10.0736 -0.000732422 0 10.0729 0 22.4993C0 34.9257 10.0736 44.9993 22.5 44.9993C34.9264 44.9993 45 34.9257 45 22.4993Z" fill="url(#paint0_linear_1064_480)"/>
<path d="M22.9945 33C21.3874 33 19.9838 32.7118 18.7836 32.1355C17.5902 31.5591 16.6613 30.7522 15.9968 29.7147C15.3323 28.6773 15 27.4636 15 26.0735C15 25.3412 15.0576 24.6902 15.1729 24.1207C15.295 23.5511 15.4407 23.0391 15.6103 22.5848C15.7866 22.1237 15.9629 21.6898 16.1392 21.2829C16.3155 20.8761 16.4612 20.4726 16.5765 20.0726C16.6918 19.6725 16.7494 19.2453 16.7494 18.791C16.7494 18.5673 16.7359 18.3232 16.7087 18.0587C16.6884 17.7875 16.6782 17.5875 16.6782 17.4586C16.6782 17.2349 16.7426 17.0518 16.8715 16.9094C17.0003 16.767 17.1698 16.6958 17.38 16.6958C17.7394 16.6958 18.1022 16.8043 18.4683 17.0213C18.8413 17.2382 19.1735 17.54 19.4651 17.9265C19.7634 18.3062 19.9906 18.747 20.1466 19.2487L19.638 19.3504C19.8007 19.0656 19.9025 18.8148 19.9431 18.5978C19.9906 18.374 20.0143 18.1469 20.0143 17.9163C20.0076 17.245 19.8821 16.6076 19.638 16.0042C19.4007 15.4007 19.0955 14.8277 18.7226 14.2853C18.3564 13.7428 17.9733 13.2309 17.5733 12.7494C17.4648 12.6274 17.3834 12.5019 17.3292 12.3731C17.2749 12.2443 17.2478 12.1154 17.2478 11.9866C17.2478 11.6611 17.3868 11.417 17.6648 11.2543C17.9496 11.0848 18.3327 11 18.8141 11C19.7092 11 20.6517 11.1085 21.6417 11.3255C22.6385 11.5357 23.6251 11.8679 24.6015 12.3222C25.5847 12.7698 26.517 13.3427 27.3985 14.0411C28.28 14.7328 29.0598 15.5566 29.7379 16.5127C30.4227 17.462 30.9618 18.5503 31.3551 19.7776C31.7483 21.0049 31.945 22.378 31.945 23.8969C31.945 25.2598 31.7314 26.5007 31.3042 27.6195C30.8838 28.7383 30.2769 29.6978 29.4836 30.4979C28.6902 31.298 27.7443 31.9151 26.6459 32.3491C25.5542 32.783 24.337 33 22.9945 33ZM23.2284 30.1419C24.0353 30.1419 24.7032 29.9656 25.2321 29.613C25.7678 29.2604 26.1678 28.796 26.4323 28.2196C26.6967 27.6432 26.8289 27.0194 26.8289 26.3481C26.8289 25.6836 26.7001 25.0157 26.4424 24.3444C26.1916 23.6731 25.8152 23.0527 25.3135 22.4831C24.8117 21.9135 24.1879 21.4525 23.442 21.0999C23.3945 21.0795 23.3572 21.0829 23.3301 21.11C23.303 21.1304 23.2928 21.1643 23.2996 21.2117C23.3877 22.0458 23.3742 22.8222 23.2589 23.5409C23.1436 24.2529 22.9504 24.792 22.6791 25.1581C22.5503 24.8665 22.4045 24.5953 22.2418 24.3444C22.0858 24.0868 21.8892 23.8528 21.6519 23.6426C21.618 23.6155 21.5841 23.6087 21.5502 23.6223C21.523 23.6291 21.5061 23.6562 21.4993 23.7037C21.4586 23.9952 21.3637 24.2631 21.2145 24.5072C21.0653 24.7445 20.9026 24.9954 20.7263 25.2598C20.55 25.5175 20.3941 25.8091 20.2584 26.1345C20.1296 26.4532 20.0652 26.8363 20.0652 27.2839C20.0652 28.1382 20.3534 28.8299 20.9297 29.3588C21.5129 29.8809 22.2791 30.1419 23.2284 30.1419Z" fill="white"/>
</g>
<defs>
<linearGradient id="paint0_linear_1064_480" x1="22.5" y1="-0.000732422" x2="22.5" y2="44.9993" gradientUnits="userSpaceOnUse">
<stop stop-color="#F78385"/>
<stop offset="1" stop-color="#FD6366"/>
</linearGradient>
<clipPath id="clip0_1064_480">
<rect width="45" height="45" fill="white"/>
</clipPath>
</defs>
</svg>
