<svg width="25" height="25" viewBox="0 0 25 25" fill="none" xmlns="http://www.w3.org/2000/svg">
<path fill-rule="evenodd" clip-rule="evenodd" d="M12 1C5.92487 1 1 5.92487 1 12V13C1 19.0751 5.92487 24 12 24H13C19.0751 24 24 19.0751 24 13V12C24 5.92487 19.0751 1 13 1H12ZM11.7201 18.9482C11.7201 19.4188 12.0091 19.6996 12.4549 19.6996C12.9008 19.6996 13.1897 19.4188 13.1897 18.9482V18.1309C15.0639 17.9244 16.6822 16.8346 16.6822 14.8036C16.6822 13.1853 15.4767 12.1533 13.3549 11.6662L12.2815 11.4185C11.1835 11.1708 10.4404 10.7002 10.4404 9.94061C10.4404 9.05718 11.2 8.49576 12.4632 8.49576C13.5695 8.49576 14.2135 8.91683 14.5851 9.78374C14.7915 10.18 15.0474 10.4112 15.5263 10.4112C16.0547 10.4112 16.418 10.1222 16.418 9.64338C16.418 9.48651 16.3849 9.3379 16.3437 9.18103C15.9804 7.96735 14.808 7.09218 13.1897 6.89403V6.05189C13.1897 5.58128 12.9008 5.30057 12.4549 5.30057C12.0091 5.30057 11.7201 5.58128 11.7201 6.05189V6.89403C9.87071 7.12521 8.43411 8.24807 8.43411 10.114C8.43411 11.6744 9.68081 12.7477 11.5632 13.1771L12.6861 13.4413C13.9493 13.7385 14.7089 14.1678 14.7089 15.0017C14.7089 15.9842 13.8585 16.5126 12.5292 16.5126C11.2743 16.5126 10.4982 16.0503 10.1679 15.2081C9.99455 14.8201 9.72209 14.5394 9.24323 14.5394C8.67354 14.5394 8.31852 14.8861 8.31852 15.4063C8.31852 15.5466 8.34329 15.7035 8.40108 15.8604C8.75611 17.008 9.96978 17.9079 11.7201 18.1143V18.9482Z" fill="url(#paint0_linear_767_539)"/>
<defs>
<linearGradient id="paint0_linear_767_539" x1="1.5" y1="4.5" x2="19.5" y2="24" gradientUnits="userSpaceOnUse">
<stop stop-color="#298BD5"/>
<stop offset="1" stop-color="#50A8EB"/>
</linearGradient>
</defs>
</svg>
