<svg width="42" height="42" viewBox="0 0 42 42" fill="none" xmlns="http://www.w3.org/2000/svg">
<rect width="42" height="42" rx="10" fill="#EFEFF4"/>
<path fill-rule="evenodd" clip-rule="evenodd" d="M23.8002 14.6V10.9777C23.8521 11.0096 23.9017 11.0455 23.9486 11.0853C23.98 11.112 24.0132 11.1443 24.1416 11.2728L28.7274 15.8585C28.8558 15.9869 28.8882 16.0202 28.9149 16.0516C28.9546 16.0984 28.9906 16.1481 29.0225 16.2H25.4002C24.967 16.2 24.6901 16.1993 24.4801 16.1822C24.2795 16.1658 24.2113 16.1384 24.1824 16.1237C24.0507 16.0566 23.9436 15.9495 23.8765 15.8178C23.8618 15.7889 23.8344 15.7207 23.818 15.52C23.8008 15.31 23.8002 15.0332 23.8002 14.6ZM29.2002 23.8V17.8H25.4002L25.3698 17.8C24.9757 17.8 24.6329 17.8 24.3499 17.7769C24.0503 17.7524 23.748 17.6981 23.456 17.5493C23.0232 17.3288 22.6714 16.9769 22.4509 16.5441C22.3021 16.2521 22.2478 15.9499 22.2233 15.6503C22.2002 15.3673 22.2002 15.0244 22.2002 14.6304L22.2002 14.6V10.8H20.2002C19.6269 10.8 19.2451 10.8006 18.9517 10.8246C18.6677 10.8478 18.5377 10.8888 18.4554 10.9308C18.2296 11.0458 18.046 11.2294 17.931 11.4552C17.889 11.5375 17.848 11.6675 17.8248 11.9515C17.8008 12.2449 17.8002 12.6267 17.8002 13.2V14.2H18.0002L18.0261 14.2C18.1696 14.1999 18.2849 14.1999 18.3992 14.2092C18.9833 14.2568 19.5376 14.4864 19.9843 14.8658C20.0717 14.94 20.1533 15.0216 20.2547 15.1231L20.273 15.1414L24.8588 19.7272L24.8771 19.7455L24.8771 19.7455C24.9786 19.8469 25.0602 19.9285 25.1344 20.0159C25.5137 20.4625 25.7433 21.0169 25.7909 21.6009C25.8003 21.7152 25.8002 21.8306 25.8002 21.9741L25.8002 22V26.2H26.8002C27.3734 26.2 27.7553 26.1993 28.0486 26.1754C28.3327 26.1522 28.4626 26.1111 28.545 26.0692C28.7708 25.9541 28.9544 25.7705 29.0694 25.5447C29.1114 25.4624 29.1524 25.3324 29.1756 25.0484C29.1996 24.755 29.2002 24.3732 29.2002 23.8ZM25.8002 27.8H26.8002H26.8324H26.8325C27.3651 27.8 27.8127 27.8 28.1789 27.7701C28.5619 27.7388 28.9259 27.6708 29.2714 27.4948C29.7982 27.2263 30.2266 26.798 30.495 26.2711C30.671 25.9256 30.739 25.5617 30.7703 25.1787C30.8002 24.8124 30.8002 24.3648 30.8002 23.8322V23.8321V23.8V17L30.8002 16.9741V16.974C30.8002 16.8305 30.8003 16.7152 30.7909 16.6009C30.7433 16.0169 30.5137 15.4625 30.1344 15.0159C30.0602 14.9285 29.9786 14.847 29.8772 14.7456L29.8771 14.7455L29.8588 14.7272L25.273 10.1414L25.2547 10.1231C25.1533 10.0216 25.0717 9.94 24.9843 9.86576C24.5376 9.48645 23.9833 9.25682 23.3992 9.20921C23.2849 9.1999 23.1696 9.19992 23.0261 9.19995L23.0002 9.19996H20.2002L20.1681 9.19996C19.6354 9.19995 19.1878 9.19994 18.8215 9.22986C18.4385 9.26115 18.0745 9.32911 17.729 9.50514C17.2022 9.77359 16.7738 10.2019 16.5054 10.7288C16.3293 11.0743 16.2614 11.4382 16.2301 11.8212C16.2002 12.1875 16.2002 12.6351 16.2002 13.1678L16.2002 13.2V14.2H15.2002L15.1681 14.2C14.6354 14.1999 14.1878 14.1999 13.8215 14.2299C13.4385 14.2612 13.0745 14.3291 12.729 14.5051C12.2022 14.7736 11.7738 15.2019 11.5054 15.7288C11.3293 16.0743 11.2614 16.4382 11.2301 16.8212C11.2002 17.1875 11.2002 17.6351 11.2002 18.1678V18.1678V18.2V28.8V28.8321V28.8321C11.2002 29.3648 11.2002 29.8124 11.2301 30.1787C11.2614 30.5617 11.3293 30.9256 11.5054 31.2711C11.7738 31.798 12.2022 32.2263 12.729 32.4948C13.0745 32.6708 13.4385 32.7388 13.8215 32.7701C14.1877 32.8 14.6353 32.8 15.1679 32.8H15.168H15.2002H21.8002H21.8324H21.8325C22.3651 32.8 22.8127 32.8 23.1789 32.7701C23.5619 32.7388 23.9259 32.6708 24.2714 32.4948C24.7982 32.2263 25.2266 31.798 25.495 31.2711C25.671 30.9256 25.739 30.5617 25.7703 30.1787C25.8002 29.8124 25.8002 29.3648 25.8002 28.8321V28.8V27.8ZM18.8002 19.6V15.9777C18.8521 16.0096 18.9017 16.0455 18.9486 16.0853C18.98 16.112 19.0132 16.1443 19.1416 16.2728L23.7274 20.8585C23.8558 20.9869 23.8882 21.0202 23.9149 21.0516C23.9546 21.0984 23.9906 21.1481 24.0225 21.2H20.4002C19.967 21.2 19.6901 21.1993 19.4801 21.1822C19.2795 21.1658 19.2113 21.1384 19.1824 21.1237C19.0507 21.0566 18.9436 20.9495 18.8765 20.8178C18.8618 20.7889 18.8344 20.7207 18.818 20.52C18.8008 20.31 18.8002 20.0332 18.8002 19.6ZM20.4002 22.8H24.2002V28.8C24.2002 29.3732 24.1996 29.755 24.1756 30.0484C24.1524 30.3324 24.1114 30.4624 24.0694 30.5447C23.9544 30.7705 23.7708 30.9541 23.545 31.0692C23.4626 31.1111 23.3327 31.1522 23.0486 31.1754C22.7553 31.1993 22.3734 31.2 21.8002 31.2H15.2002C14.6269 31.2 14.2451 31.1993 13.9517 31.1754C13.6677 31.1522 13.5377 31.1111 13.4554 31.0692C13.2296 30.9541 13.046 30.7705 12.931 30.5447C12.889 30.4624 12.848 30.3324 12.8248 30.0484C12.8008 29.755 12.8002 29.3732 12.8002 28.8V18.2C12.8002 17.6267 12.8008 17.2449 12.8248 16.9515C12.848 16.6675 12.889 16.5375 12.931 16.4552C13.046 16.2294 13.2296 16.0458 13.4554 15.9308C13.5377 15.8888 13.6677 15.8478 13.9517 15.8246C14.2451 15.8006 14.6269 15.8 15.2002 15.8H17.2002V19.6L17.2002 19.6304C17.2002 20.0244 17.2002 20.3673 17.2233 20.6503C17.2478 20.9499 17.3021 21.2521 17.4509 21.5441C17.6714 21.9769 18.0232 22.3288 18.456 22.5493C18.748 22.6981 19.0503 22.7524 19.3499 22.7769C19.6329 22.8 19.9757 22.8 20.3698 22.8H20.4002Z" fill="#707579"/>
</svg>
