<svg width="20" height="24" viewBox="0 0 20 24" fill="none" xmlns="http://www.w3.org/2000/svg">
<path fill-rule="evenodd" clip-rule="evenodd" d="M12.6 5.40001V1.77772C12.6519 1.80961 12.7015 1.84556 12.7484 1.88535C12.7798 1.91205 12.813 1.94439 12.9414 2.0728L17.5272 6.65859C17.6556 6.78699 17.688 6.8202 17.7147 6.85165C17.7544 6.8985 17.7904 6.94811 17.8223 7.00001H14.2C13.7668 7.00001 13.4899 6.99939 13.2799 6.98223C13.0793 6.96583 13.0111 6.93842 12.9822 6.92371C12.8505 6.8566 12.7434 6.74951 12.6763 6.6178C12.6616 6.58894 12.6342 6.52071 12.6178 6.32006C12.6006 6.11006 12.6 5.83325 12.6 5.40001ZM18 14.6V8.60001H14.2L14.1696 8.60001C13.7755 8.60002 13.4327 8.60004 13.1497 8.57691C12.8501 8.55244 12.5478 8.49811 12.2558 8.34932C11.823 8.12881 11.4712 7.77696 11.2507 7.34419C11.1019 7.05218 11.0476 6.74995 11.0231 6.45035C11 6.16734 11 5.82447 11 5.43041L11 5.40001V1.60001H9C8.42675 1.60001 8.04492 1.60063 7.75155 1.6246C7.46752 1.64781 7.33755 1.68885 7.25521 1.7308C7.02942 1.84585 6.84584 2.02942 6.73079 2.25522C6.68884 2.33756 6.6478 2.46753 6.62459 2.75156C6.60062 3.04493 6.6 3.42675 6.6 4.00001V5.00001H6.8L6.82587 5C6.96938 4.99997 7.08474 4.99995 7.19905 5.00926C7.78308 5.05687 8.33745 5.2865 8.78408 5.6658C8.8715 5.74004 8.95305 5.82164 9.05451 5.92314L9.07279 5.94143L13.6586 10.5272L13.6769 10.5455L13.6769 10.5456C13.7784 10.647 13.86 10.7285 13.9342 10.8159C14.3135 11.2626 14.5431 11.8169 14.5907 12.401C14.6001 12.5153 14.6 12.6306 14.6 12.7741L14.6 12.8V17H15.6C16.1733 17 16.5551 16.9994 16.8485 16.9754C17.1325 16.9522 17.2625 16.9112 17.3448 16.8692C17.5706 16.7542 17.7542 16.5706 17.8692 16.3448C17.9112 16.2625 17.9522 16.1325 17.9754 15.8485C17.9994 15.5551 18 15.1733 18 14.6ZM14.6 18.6H15.6H15.6322H15.6323C16.1649 18.6 16.6125 18.6 16.9787 18.5701C17.3617 18.5388 17.7257 18.4709 18.0712 18.2948C18.598 18.0264 19.0264 17.598 19.2948 17.0712C19.4709 16.7257 19.5388 16.3617 19.5701 15.9787C19.6 15.6125 19.6 15.1649 19.6 14.6322V14.6321V14.6V7.80001L19.6 7.77414V7.77404C19.6 7.63058 19.6001 7.51524 19.5907 7.40096C19.5431 6.81693 19.3135 6.26256 18.9342 5.81593C18.86 5.72854 18.7784 5.64701 18.677 5.54561L18.6769 5.54552L18.6586 5.52722L14.0728 0.941429L14.0545 0.923138C13.9531 0.821639 13.8715 0.740045 13.7841 0.665804C13.3375 0.286497 12.7831 0.0568672 12.199 0.00926301C12.0847 -5.43308e-05 11.9694 -2.85219e-05 11.8259 3.72417e-06L11.8 7.53886e-06H9L8.96788 7.06203e-06C8.43518 -4.8589e-06 7.98756 -1.49321e-05 7.62126 0.0299128C7.23828 0.0612032 6.87431 0.129155 6.52883 0.305189C6.00197 0.573635 5.57363 1.00198 5.30518 1.52883C5.12915 1.87432 5.0612 2.23829 5.02991 2.62127C4.99998 2.98756 4.99999 3.43518 5 3.96788L5 4.00001V5.00001H4L3.96788 5.00001C3.43518 4.99999 2.98756 4.99998 2.62126 5.02991C2.23828 5.0612 1.87431 5.12916 1.52883 5.30519C1.00197 5.57363 0.573629 6.00198 0.305183 6.52883C0.129149 6.87432 0.0611973 7.23829 0.0299068 7.62127C-2.02965e-05 7.98756 -1.08306e-05 8.43516 4.35071e-07 8.96785V8.96788V9.00001V19.6V19.6321V19.6322C-1.08306e-05 20.1648 -2.02962e-05 20.6125 0.0299068 20.9787C0.0611972 21.3617 0.129149 21.7257 0.305183 22.0712C0.573629 22.598 1.00197 23.0264 1.52883 23.2948C1.87431 23.4709 2.23828 23.5388 2.62126 23.5701C2.98752 23.6 3.43508 23.6 3.9677 23.6H3.9678H4H10.6H10.6322H10.6323C11.1649 23.6 11.6125 23.6 11.9787 23.5701C12.3617 23.5388 12.7257 23.4709 13.0712 23.2948C13.598 23.0264 14.0264 22.598 14.2948 22.0712C14.4709 21.7257 14.5388 21.3617 14.5701 20.9787C14.6 20.6124 14.6 20.1648 14.6 19.6321V19.6V18.6ZM7.6 10.4V6.77771C7.65189 6.80961 7.70151 6.84556 7.74836 6.88535C7.77981 6.91205 7.81302 6.94439 7.94142 7.0728L12.5272 11.6586C12.6556 11.787 12.688 11.8202 12.7147 11.8516C12.7544 11.8985 12.7904 11.9481 12.8223 12H9.2C8.76676 12 8.48994 11.9994 8.27995 11.9822C8.07929 11.9658 8.01107 11.9384 7.98221 11.9237C7.85049 11.8566 7.74341 11.7495 7.6763 11.6178C7.66159 11.5889 7.63418 11.5207 7.61778 11.3201C7.60062 11.1101 7.6 10.8332 7.6 10.4ZM9.2 13.6H13V19.6C13 20.1733 12.9994 20.5551 12.9754 20.8485C12.9522 21.1325 12.9112 21.2625 12.8692 21.3448C12.7542 21.5706 12.5706 21.7542 12.3448 21.8692C12.2625 21.9112 12.1325 21.9522 11.8485 21.9754C11.5551 21.9994 11.1733 22 10.6 22H4C3.42675 22 3.04492 21.9994 2.75155 21.9754C2.46752 21.9522 2.33755 21.9112 2.25521 21.8692C2.02942 21.7542 1.84584 21.5706 1.73079 21.3448C1.68884 21.2625 1.6478 21.1325 1.62459 20.8485C1.60062 20.5551 1.6 20.1733 1.6 19.6V9.00001C1.6 8.42675 1.60062 8.04493 1.62459 7.75156C1.6478 7.46753 1.68884 7.33756 1.73079 7.25522C1.84584 7.02942 2.02942 6.84585 2.25521 6.7308C2.33755 6.68885 2.46752 6.64781 2.75155 6.6246C3.04492 6.60063 3.42675 6.60001 4 6.60001H6V10.4L6 10.4304C5.99999 10.8245 5.99997 11.1673 6.02309 11.4503C6.04757 11.75 6.1019 12.0522 6.25069 12.3442C6.4712 12.777 6.82305 13.1288 7.25582 13.3493C7.54783 13.4981 7.85006 13.5524 8.14966 13.5769C8.43266 13.6 8.77554 13.6 9.16959 13.6H9.2Z" fill="#50A8EB"/>
</svg>
