<svg width="25" height="25" viewBox="0 0 25 25" fill="none" xmlns="http://www.w3.org/2000/svg">
<path fill-rule="evenodd" clip-rule="evenodd" d="M1 12.5C1 6.14873 6.14873 1 12.5 1C18.8513 1 24 6.14873 24 12.5C24 18.8513 18.8513 24 12.5 24C6.14873 24 1 18.8513 1 12.5ZM10.7264 6.2584C10.9979 6.5299 10.9979 6.9701 10.7264 7.2416L9.29962 8.66841H17.0303C17.4142 8.66841 17.7255 8.97967 17.7255 9.36364C17.7255 9.7476 17.4142 10.0589 17.0303 10.0589H9.29962L10.7264 11.4857C10.9979 11.7572 10.9979 12.1974 10.7264 12.4689C10.4549 12.7404 10.0147 12.7404 9.74323 12.4689L7.12959 9.85524C6.99921 9.72486 6.92596 9.54802 6.92596 9.36364C6.92596 9.17925 6.99921 9.00242 7.12959 8.87204L9.74323 6.2584C10.0147 5.9869 10.4549 5.9869 10.7264 6.2584ZM14.4443 13.5143C14.1728 13.2428 14.1728 12.8026 14.4443 12.5311C14.7158 12.2596 15.156 12.2596 15.4275 12.5311L18.0411 15.1448C18.1715 15.2751 18.2448 15.452 18.2448 15.6364C18.2448 15.8207 18.1715 15.9976 18.0411 16.128L15.4275 18.7416C15.156 19.0131 14.7158 19.0131 14.4443 18.7416C14.1728 18.4701 14.1728 18.0299 14.4443 17.7584L15.8711 16.3316H8.14046C7.75649 16.3316 7.44523 16.0203 7.44523 15.6364C7.44523 15.2524 7.75649 14.9411 8.14046 14.9411H15.8711L14.4443 13.5143Z" fill="url(#paint0_linear_767_526)"/>
<defs>
<linearGradient id="paint0_linear_767_526" x1="1.5" y1="4.5" x2="19.5" y2="24" gradientUnits="userSpaceOnUse">
<stop stop-color="#298BD5"/>
<stop offset="1" stop-color="#50A8EB"/>
</linearGradient>
</defs>
</svg>
