<svg width="48" height="48" viewBox="0 0 48 48" fill="none" xmlns="http://www.w3.org/2000/svg">
<rect width="48" height="48" rx="24" fill="url(#paint0_linear_3878_2702)"/>
<path d="M11.6657 28.3928C11.4296 28.4661 11.2017 28.4457 10.9819 28.3317C10.7702 28.2177 10.6236 28.0305 10.5422 27.77C10.3061 26.8988 10.1474 26.0766 10.0659 25.3031C9.99267 24.5297 9.98046 23.7848 10.0293 23.0683C10.0537 22.7915 10.1555 22.5758 10.3346 22.4211C10.5137 22.2664 10.7417 22.2053 11.0185 22.2379C11.2383 22.2623 11.4174 22.3559 11.5558 22.5188C11.7024 22.6816 11.7716 22.8892 11.7634 23.1416C11.7471 23.9964 11.7756 24.7414 11.8489 25.3764C11.9303 26.0033 12.0524 26.6383 12.2153 27.2815C12.2723 27.5339 12.2478 27.7659 12.142 27.9776C12.0443 28.1811 11.8855 28.3195 11.6657 28.3928ZM11.0673 20.7724C10.8312 20.6829 10.6603 20.5119 10.5544 20.2595C10.4567 19.999 10.473 19.7018 10.6033 19.3681C11.165 17.8863 11.8896 16.5796 12.777 15.448C13.6644 14.3082 14.6821 13.3516 15.8301 12.5781C16.978 11.7966 18.2236 11.2104 19.567 10.8196C20.9184 10.4207 22.3391 10.2212 23.829 10.2212C25.0095 10.2212 26.0923 10.3352 27.0774 10.5631C28.0625 10.7829 29.0354 11.1859 29.9961 11.7721C30.224 11.9105 30.3828 12.0774 30.4724 12.2728C30.5619 12.4682 30.5497 12.6799 30.4357 12.9079C30.3217 13.1602 30.1386 13.2986 29.8862 13.3231C29.6419 13.3393 29.3773 13.2742 29.0924 13.1277C28.3515 12.7532 27.5577 12.4641 26.711 12.2606C25.8643 12.0571 24.9036 11.9553 23.829 11.9553C22.1518 11.9553 20.5521 12.2769 19.0296 12.9201C17.5153 13.5632 16.172 14.4954 14.9996 15.7166C13.8354 16.9378 12.9276 18.4277 12.2763 20.1863C12.1786 20.4468 12.0158 20.634 11.7879 20.748C11.5599 20.8539 11.3197 20.862 11.0673 20.7724ZM37.189 25.5107C36.9529 25.5107 36.7575 25.4293 36.6028 25.2665C36.4481 25.0955 36.3545 24.8798 36.3219 24.6193C36.1266 22.4618 35.6381 20.6178 34.8565 19.0872C34.0831 17.5566 33.0613 16.1766 31.7913 14.9473C31.5877 14.7519 31.4737 14.5402 31.4493 14.3122C31.433 14.0761 31.5063 13.8726 31.6691 13.7016C31.8157 13.5307 32.007 13.433 32.2431 13.4085C32.4874 13.3841 32.7112 13.4655 32.9148 13.6528C33.8755 14.5402 34.7059 15.5009 35.406 16.5348C36.1062 17.5607 36.672 18.729 37.1035 20.0397C37.535 21.3423 37.8322 22.8526 37.995 24.5704C38.0194 24.8309 37.9543 25.0548 37.7996 25.2421C37.6449 25.4212 37.4414 25.5107 37.189 25.5107ZM12.9358 31.9709C12.8137 31.7918 12.7689 31.5924 12.8015 31.3725C12.834 31.1446 12.9399 30.941 13.119 30.7619C13.3795 30.5177 13.583 30.2165 13.7296 29.8582C13.8843 29.5 13.9616 29.1092 13.9616 28.6859C13.9535 28.2625 13.8843 27.8188 13.754 27.3548C13.6237 26.8907 13.4935 26.3859 13.3632 25.8405C13.2329 25.2868 13.1678 24.6681 13.1678 23.9842C13.1678 22.5269 13.4446 21.1592 13.9982 19.881C14.5519 18.5946 15.3171 17.467 16.2941 16.4982C17.2711 15.5212 18.3987 14.7559 19.6769 14.2023C20.9632 13.6406 22.335 13.3597 23.7923 13.3597C25.502 13.3597 27.0489 13.6854 28.4329 14.3367C29.8251 14.988 31.0178 15.9161 32.0111 17.121C33.0043 18.3178 33.7696 19.7507 34.307 21.4197C34.8443 23.0805 35.113 24.9286 35.113 26.964C35.113 28.519 34.9949 29.846 34.7588 30.9451C34.5308 32.0361 34.2988 32.895 34.0627 33.5219C33.9732 33.7661 33.8022 33.9289 33.5498 34.0104C33.3056 34.0999 33.0735 34.0918 32.8537 33.9859C32.6502 33.8882 32.5077 33.7254 32.4263 33.4974C32.353 33.2695 32.3652 33.0415 32.4629 32.8136C32.6827 32.2925 32.8904 31.5476 33.0857 30.5788C33.2811 29.6018 33.3788 28.4009 33.3788 26.9762C33.3707 24.607 32.9718 22.531 32.182 20.748C31.3923 18.9569 30.277 17.5688 28.8359 16.5837C27.403 15.5904 25.7219 15.0938 23.7923 15.0938C22.5711 15.0938 21.4232 15.3258 20.3485 15.7899C19.2739 16.254 18.3295 16.8971 17.5153 17.7194C16.7012 18.5336 16.0621 19.478 15.598 20.5526C15.134 21.6191 14.9019 22.763 14.9019 23.9842C14.9019 24.6762 14.963 25.2665 15.0851 25.755C15.2072 26.2353 15.3294 26.7034 15.4515 27.1594C15.5817 27.6071 15.6469 28.1201 15.6469 28.6981C15.6469 29.382 15.5248 30.0251 15.2805 30.6276C15.0444 31.2301 14.6984 31.7267 14.2425 32.1175C14.0308 32.2884 13.7988 32.3617 13.5464 32.3373C13.294 32.3047 13.0905 32.1826 12.9358 31.9709ZM16.1109 34.3523C15.8504 34.4907 15.6021 34.5233 15.366 34.45C15.138 34.3767 14.9752 34.2302 14.8775 34.0104C14.7961 33.815 14.788 33.6114 14.8531 33.3997C14.9264 33.1881 15.0851 32.9967 15.3294 32.8258C15.7609 32.5245 16.115 32.1826 16.3918 31.8C16.6768 31.4173 16.9047 30.9736 17.0757 30.4688C17.1571 30.2246 17.2996 30.0455 17.5031 29.9315C17.7148 29.8175 17.9305 29.7972 18.1504 29.8705C18.3783 29.9519 18.5411 30.1025 18.6388 30.3223C18.7447 30.5421 18.761 30.7619 18.6877 30.9818C18.5656 31.4051 18.362 31.8447 18.0771 32.3007C17.8003 32.7566 17.4868 33.1677 17.1367 33.5341C16.7867 33.9086 16.4447 34.1813 16.1109 34.3523ZM18.7976 27.1594C18.879 27.4117 18.879 27.6519 18.7976 27.8799C18.7162 28.0997 18.5615 28.2544 18.3335 28.3439C18.0649 28.4498 17.8166 28.4538 17.5886 28.3562C17.3606 28.2585 17.1978 28.0793 17.1001 27.8188C16.9047 27.3222 16.7215 26.7523 16.5506 26.1091C16.3877 25.4578 16.3063 24.7617 16.3063 24.0209C16.3063 22.9788 16.5017 22.0059 16.8925 21.1022C17.2833 20.1903 17.8206 19.3925 18.5045 18.7086C19.1965 18.0166 19.9944 17.4752 20.8981 17.0844C21.8099 16.6936 22.7869 16.4982 23.829 16.4982C24.4721 16.4982 25.0746 16.5715 25.6364 16.718C26.1981 16.8564 26.6907 17.0518 27.114 17.3042C27.3664 17.4426 27.5252 17.6299 27.5903 17.866C27.6554 18.1021 27.631 18.33 27.517 18.5498C27.4275 18.729 27.2809 18.847 27.0774 18.904C26.882 18.961 26.6703 18.9366 26.4424 18.8307C26.1004 18.676 25.8073 18.558 25.5631 18.4766C25.327 18.387 25.0787 18.326 24.8182 18.2934C24.5576 18.2608 24.2279 18.2445 23.829 18.2445C22.7543 18.2445 21.7814 18.5051 20.9103 19.0261C20.0392 19.539 19.3431 20.231 18.822 21.1022C18.3091 21.9733 18.0527 22.9462 18.0527 24.0209C18.0527 24.6803 18.1381 25.2665 18.3091 25.7794C18.4801 26.2842 18.6429 26.7442 18.7976 27.1594ZM28.5551 20.6503C28.4004 20.3979 28.3434 20.1456 28.3841 19.8932C28.4329 19.6326 28.5754 19.4413 28.8115 19.3192C29.0232 19.2052 29.2471 19.1849 29.4832 19.2581C29.7274 19.3314 29.9228 19.4861 30.0694 19.7222C30.4194 20.3328 30.7369 20.9923 31.0219 21.7006C31.315 22.4007 31.547 23.223 31.718 24.1674C31.889 25.1118 31.9744 26.2435 31.9744 27.5624C31.9744 29.2965 31.7383 30.9573 31.2661 32.5449C30.8021 34.1243 30.1793 35.4432 29.3977 36.5016C29.243 36.7052 29.0354 36.8151 28.7749 36.8313C28.5143 36.8558 28.2864 36.7784 28.091 36.5993C27.9282 36.4446 27.8468 36.2492 27.8468 36.0131C27.8468 35.7852 27.916 35.5776 28.0544 35.3903C28.7301 34.5599 29.2674 33.4486 29.6664 32.0564C30.0653 30.6642 30.2647 29.1825 30.2647 27.6112C30.2647 26.1458 30.1182 24.8391 29.8251 23.6911C29.5402 22.5351 29.1168 21.5214 28.5551 20.6503ZM18.761 36.0009C18.5656 36.1719 18.3417 36.2452 18.0893 36.2207C17.8369 36.2045 17.6334 36.0823 17.4787 35.8544C17.3484 35.659 17.2996 35.4514 17.3321 35.2316C17.3728 35.0117 17.4909 34.8163 17.6863 34.6454C18.5249 33.9696 19.164 33.1107 19.6036 32.0686C20.0514 31.0265 20.2712 29.8908 20.263 28.6615C20.2549 28.0834 20.1857 27.5094 20.0554 26.9395C19.9333 26.3697 19.8071 25.816 19.6769 25.2787C19.5547 24.7332 19.4937 24.2163 19.4937 23.7278C19.4937 22.9218 19.6809 22.2175 20.0554 21.6151C20.4299 21.0045 20.9429 20.5282 21.5942 20.1863C22.2455 19.8362 22.9823 19.6611 23.8046 19.6611C24.9443 19.6611 25.8725 19.9827 26.5889 20.6259C27.3054 21.2609 27.8305 22.1565 28.1643 23.3126C28.5062 24.4686 28.6772 25.8242 28.6772 27.3792C28.6853 28.7795 28.5306 30.1391 28.2131 31.458C27.8956 32.7769 27.46 33.9615 26.9064 35.0117C26.3528 36.0701 25.7341 36.9128 25.0502 37.5396C24.8467 37.7269 24.6146 37.8042 24.3541 37.7717C24.1017 37.7391 23.9022 37.617 23.7557 37.4053C23.6336 37.2181 23.5888 37.0145 23.6214 36.7947C23.6621 36.5749 23.772 36.3876 23.9511 36.233C24.5861 35.6875 25.1438 34.967 25.6242 34.0714C26.1045 33.184 26.4709 32.1785 26.7232 31.055C26.9838 29.9315 27.0937 28.7469 27.053 27.5013C27.0204 26.2801 26.8901 25.2136 26.6622 24.3017C26.4342 23.3818 26.0882 22.6694 25.6242 22.1646C25.1601 21.6517 24.5536 21.3953 23.8046 21.3953C23.023 21.3953 22.392 21.6191 21.9117 22.0669C21.4395 22.5147 21.2034 23.1172 21.2034 23.8743C21.2034 24.2651 21.2685 24.6885 21.3988 25.1444C21.529 25.5921 21.6593 26.101 21.7896 26.6709C21.928 27.2408 22.0012 27.9043 22.0094 28.6615C22.0175 30.1432 21.7366 31.5272 21.1667 32.8136C20.605 34.0999 19.8031 35.1624 18.761 36.0009ZM21.7285 37.0145C21.5168 37.1692 21.2807 37.2262 21.0202 37.1855C20.7678 37.1529 20.5806 37.0349 20.4584 36.8313C20.3282 36.636 20.2834 36.4243 20.3241 36.1963C20.3648 35.9684 20.4829 35.773 20.6783 35.6101C21.1016 35.2682 21.4843 34.8611 21.8262 34.3889C22.1681 33.9167 22.4734 33.3468 22.7421 32.6792C22.8398 32.4431 22.9863 32.2722 23.1817 32.1663C23.3853 32.0523 23.6173 32.0401 23.8778 32.1297C24.1139 32.203 24.2686 32.3576 24.3419 32.5937C24.4233 32.8217 24.4233 33.0456 24.3419 33.2654C24.0732 34.0388 23.6946 34.7634 23.2062 35.4392C22.7177 36.123 22.2251 36.6482 21.7285 37.0145ZM25.1845 29.9559C25.1357 30.2246 25.0095 30.4281 24.8059 30.5665C24.6105 30.7049 24.3867 30.7538 24.1343 30.7131C23.8819 30.6724 23.6987 30.5543 23.5847 30.3589C23.4708 30.1635 23.4341 29.9478 23.4748 29.7117C23.5644 29.1744 23.6092 28.633 23.6092 28.0875C23.6173 27.542 23.5807 26.9843 23.4992 26.4144C23.4178 25.8364 23.2835 25.2421 23.0962 24.6315C23.023 24.3791 23.0393 24.1552 23.1451 23.9598C23.2591 23.7563 23.43 23.6179 23.658 23.5446C23.8941 23.4713 24.1139 23.4917 24.3175 23.6056C24.5291 23.7196 24.6798 23.915 24.7693 24.1918C24.9728 24.8269 25.1194 25.4782 25.2089 26.1458C25.3066 26.8052 25.3514 27.4606 25.3433 28.1119C25.3433 28.7551 25.2904 29.3698 25.1845 29.9559Z" fill="white"/>
<defs>
<linearGradient id="paint0_linear_3878_2702" x1="38" y1="48" x2="-6.5" y2="6.5" gradientUnits="userSpaceOnUse">
<stop stop-color="#C528FE"/>
<stop offset="1" stop-color="#E4A5FF"/>
</linearGradient>
</defs>
</svg>
