<svg width="45" height="45" viewBox="0 0 45 45" fill="none" xmlns="http://www.w3.org/2000/svg">
<g clip-path="url(#clip0_1064_488)">
<path d="M45 22.4993C45 10.0729 34.9264 -0.000732422 22.5 -0.000732422C10.0736 -0.000732422 0 10.0729 0 22.4993C0 34.9257 10.0736 44.9993 22.5 44.9993C34.9264 44.9993 45 34.9257 45 22.4993Z" fill="white"/>
<path d="M45 22.4993C45 10.0729 34.9264 -0.000732422 22.5 -0.000732422C10.0736 -0.000732422 0 10.0729 0 22.4993C0 34.9257 10.0736 44.9993 22.5 44.9993C34.9264 44.9993 45 34.9257 45 22.4993Z" fill="url(#paint0_linear_1064_488)"/>
<path fill-rule="evenodd" clip-rule="evenodd" d="M32.3439 18.8721C32.0495 19.2499 31.6239 19.608 31.0689 19.9258C29.9111 20.5877 28.2798 21.0133 26.4508 21.0133C24.6227 21.0133 22.9914 20.5877 21.8336 19.9258C21.2786 19.608 20.852 19.2508 20.5586 18.8721V15.6049C20.5586 14.9768 20.8802 14.4761 21.2514 14.1255C21.6198 13.7758 22.1008 13.5068 22.6136 13.3015C23.6448 12.889 25.0023 12.6555 26.4508 12.6555C27.9002 12.6555 29.2567 12.889 30.288 13.3024C30.8008 13.5068 31.2817 13.7758 31.6511 14.1255C32.0214 14.4761 32.3439 14.9758 32.3439 15.6049V18.8721ZM26.4508 17.5718C29.163 17.5718 31.3614 16.6905 31.3614 15.6049C31.3614 14.5193 29.163 13.6399 26.4508 13.6399C23.7386 13.6399 21.5402 14.5202 21.5402 15.6058C21.5402 16.6924 23.7386 17.5718 26.4508 17.5718Z" fill="white"/>
<path fill-rule="evenodd" clip-rule="evenodd" d="M31.5562 20.78C31.8387 20.6181 32.1012 20.4409 32.3438 20.2485V23.7885C32.0494 24.1663 31.6237 24.5244 31.0687 24.8422C29.9109 25.5041 28.2797 25.9297 26.4506 25.9297C25.3828 25.9297 24.3825 25.7844 23.5041 25.5322V25.7553C23.2106 26.1332 22.7841 26.4913 22.2291 26.8091C21.0722 27.471 19.44 27.8966 17.6119 27.8966C15.7828 27.8966 14.1516 27.471 12.9937 26.8091C12.4387 26.4903 12.0131 26.1332 11.7188 25.7553V22.4882C11.7188 21.8591 12.0412 21.3594 12.4125 21.0078C12.7809 20.6591 13.2619 20.3891 13.7747 20.1847C14.8059 19.7722 16.1625 19.5378 17.6119 19.5378C19.0612 19.5378 20.4178 19.7722 21.4491 20.1847C21.9619 20.39 22.4428 20.6591 22.8113 21.0078C22.9772 21.1653 23.1337 21.3519 23.2556 21.5675C24.2259 21.8432 25.3116 21.996 26.4506 21.996C28.4194 21.996 30.225 21.5413 31.5562 20.78ZM17.6119 20.5213C14.8997 20.5213 12.7013 21.4025 12.7013 22.4882C12.7013 23.5738 14.8997 24.4541 17.6119 24.4541C20.3241 24.4541 22.5225 23.5738 22.5225 22.4882C22.5225 21.4016 20.3241 20.5213 17.6119 20.5213Z" fill="white"/>
<path d="M23.4019 30.4624C23.2781 30.8158 23.055 31.1111 22.8113 31.3417C22.4428 31.6914 21.9619 31.9605 21.4491 32.1658C20.4178 32.5783 19.0603 32.8117 17.6119 32.8117C16.1625 32.8117 14.8059 32.5783 13.7747 32.1649C13.2619 31.9605 12.7809 31.6914 12.4116 31.3417C12.0413 30.9911 11.7188 30.4914 11.7188 29.8624V27.1305C11.9618 27.3236 12.2243 27.5008 12.5063 27.6621C13.8375 28.4233 15.6431 28.8789 17.6119 28.8789C19.5806 28.8789 21.3853 28.4233 22.7166 27.6621C22.999 27.5008 23.2615 27.3236 23.5041 27.1305V26.5511C24.4097 26.7846 25.4072 26.9121 26.4506 26.9121C28.4194 26.9121 30.225 26.4574 31.5562 25.6961C31.8387 25.5342 32.1012 25.357 32.3438 25.1646V27.8955C32.3438 28.5246 32.0212 29.0242 31.65 29.3758C31.2816 29.7245 30.8006 29.9936 30.2878 30.1989C29.2566 30.6114 27.9 30.8458 26.4506 30.8458C25.3463 30.8458 24.2962 30.7099 23.4019 30.4624Z" fill="white"/>
</g>
<defs>
<linearGradient id="paint0_linear_1064_488" x1="22.5" y1="-2.3438" x2="22.5" y2="45" gradientUnits="userSpaceOnUse">
<stop stop-color="#83ABF7"/>
<stop offset="1" stop-color="#6963FD"/>
</linearGradient>
<clipPath id="clip0_1064_488">
<rect width="45" height="45" fill="white"/>
</clipPath>
</defs>
</svg>
