<svg width="26" height="25" viewBox="0 0 26 25" fill="none" xmlns="http://www.w3.org/2000/svg">
<path fill-rule="evenodd" clip-rule="evenodd" d="M12.667 24C19.0183 24 24.167 18.8513 24.167 12.5C24.167 6.14873 19.0183 1 12.667 1C6.31572 1 1.16699 6.14873 1.16699 12.5C1.16699 18.8513 6.31572 24 12.667 24ZM13.5034 5.18182C13.5034 4.71991 13.1289 4.34545 12.667 4.34545C12.2051 4.34545 11.8306 4.71991 11.8306 5.18182V12.7091H6.39426C5.93235 12.7091 5.5579 13.0835 5.5579 13.5455C5.5579 14.0074 5.93235 14.3818 6.39426 14.3818H12.667C13.1289 14.3818 13.5034 14.0074 13.5034 13.5455V5.18182Z" fill="url(#paint0_linear_839_9323)"/>
<defs>
<linearGradient id="paint0_linear_839_9323" x1="1.66699" y1="4.5" x2="19.667" y2="24" gradientUnits="userSpaceOnUse">
<stop stop-color="#212121"/>
<stop offset="1" stop-color="#878787"/>
</linearGradient>
</defs>
</svg>
