<svg width="25" height="25" viewBox="0 0 25 25" fill="none" xmlns="http://www.w3.org/2000/svg">
<path fill-rule="evenodd" clip-rule="evenodd" d="M12.5 24C18.8513 24 24 18.8513 24 12.5C24 6.14873 18.8513 1 12.5 1C6.14873 1 1 6.14873 1 12.5C1 18.8513 6.14873 24 12.5 24ZM13.3364 5.18182C13.3364 4.71991 12.9619 4.34545 12.5 4.34545C12.0381 4.34545 11.6636 4.71991 11.6636 5.18182V12.7091H6.22727C5.76536 12.7091 5.39091 13.0835 5.39091 13.5455C5.39091 14.0074 5.76536 14.3818 6.22727 14.3818H12.5C12.9619 14.3818 13.3364 14.0074 13.3364 13.5455V5.18182Z" fill="url(#paint0_linear_839_9322)"/>
<defs>
<linearGradient id="paint0_linear_839_9322" x1="1.5" y1="4.5" x2="19.5" y2="24" gradientUnits="userSpaceOnUse">
<stop stop-color="#298BD5"/>
<stop offset="1" stop-color="#50A8EB"/>
</linearGradient>
</defs>
</svg>
