<svg width="18" height="18" viewBox="0 0 18 18" fill="none" xmlns="http://www.w3.org/2000/svg">
<path fill-rule="evenodd" clip-rule="evenodd" d="M11.0704 0.132272C11.6729 -0.0440907 12.3132 -0.0440908 12.9157 0.132272C13.3708 0.265525 13.7491 0.515073 14.1151 0.819039C14.4654 1.11004 14.861 1.50049 15.3345 1.9677L15.3894 2.02194C15.8745 2.50063 16.2794 2.90018 16.5811 3.25436C16.8958 3.62391 17.1548 4.00712 17.2928 4.47031C17.4752 5.08227 17.4752 5.73412 17.2928 6.34608C17.1548 6.80927 16.8958 7.19248 16.5811 7.56203C16.2794 7.91623 15.8745 8.31581 15.3893 8.79453L14.3066 9.86305C14.0196 10.1462 13.9448 10.2234 13.8865 10.3021C13.7705 10.4582 13.6864 10.6356 13.6388 10.8243C13.6149 10.9192 13.6024 11.026 13.5648 11.4274L13.5616 11.4614C13.4769 12.3645 13.409 13.088 13.3186 13.6465C13.2295 14.1976 13.1012 14.7193 12.8207 15.1396C12.0246 16.3325 10.5464 16.8708 9.16967 16.4692C8.68461 16.3277 8.25088 16.0107 7.82815 15.6459C7.39986 15.2763 6.88259 14.7659 6.23699 14.1287L5.33722 13.2408L1.53216 16.9958C1.17837 17.3449 0.608535 17.3411 0.2594 16.9873C-0.0897343 16.6335 -0.0859579 16.0637 0.267835 15.7146L4.0559 11.9764L3.26907 11.1999C2.6159 10.5553 2.09321 10.0395 1.71444 9.61268C1.34131 9.19218 1.01567 8.76017 0.867503 8.27576C0.442637 6.88672 0.980832 5.38358 2.1908 4.57988C2.61276 4.29961 3.1386 4.17247 3.69383 4.08437C4.25745 3.99493 4.98874 3.92811 5.90257 3.84462L5.93644 3.84153C6.32881 3.80567 6.43313 3.7938 6.52616 3.77093C6.71304 3.725 6.8892 3.64315 7.04482 3.52995C7.12229 3.4736 7.19865 3.40153 7.47909 3.12478L8.65167 1.96764C9.12506 1.50046 9.52069 1.11003 9.87101 0.819039C10.2369 0.515073 10.6152 0.265525 11.0704 0.132272ZM12.4099 1.85977C12.1377 1.78008 11.8484 1.78008 11.5761 1.85977C11.4545 1.89539 11.296 1.97532 11.0211 2.20367C10.7373 2.43942 10.3965 2.77471 9.8887 3.27578L8.74342 4.40598C8.73035 4.41888 8.71744 4.43162 8.70469 4.44422C8.48081 4.66531 8.30426 4.83967 8.10365 4.98559C7.75924 5.23612 7.36938 5.41725 6.9558 5.51891C6.71489 5.57812 6.46778 5.60061 6.15442 5.62912C6.13658 5.63074 6.11852 5.63239 6.10023 5.63406C5.1448 5.72136 4.47338 5.78319 3.97592 5.86212C3.46313 5.9435 3.26672 6.02613 3.18673 6.07926C2.63999 6.44242 2.3968 7.12163 2.58878 7.74928C2.61687 7.84111 2.7162 8.02962 3.06081 8.41799C3.39511 8.79473 3.8747 9.26868 4.55759 9.94257L7.47699 12.8235C8.1525 13.4901 8.62697 13.9577 9.0041 14.2831C9.39215 14.618 9.58062 14.714 9.67373 14.7412C10.2958 14.9227 10.9637 14.6794 11.3235 14.1404C11.3773 14.0597 11.4599 13.865 11.5417 13.359C11.6213 12.8673 11.684 12.2041 11.7727 11.2592C11.7744 11.2405 11.7761 11.222 11.7778 11.2037C11.8078 10.8832 11.8314 10.6305 11.8934 10.3845C11.9985 9.96711 12.1847 9.57444 12.4414 9.22885C12.5926 9.02524 12.7734 8.847 13.0026 8.62097C13.0156 8.60809 13.0289 8.59505 13.0422 8.58185L14.0974 7.54061C14.6173 7.02751 14.9657 6.68256 15.2107 6.39492C15.4483 6.11594 15.5311 5.95503 15.5678 5.83198C15.6502 5.55547 15.6502 5.26092 15.5678 4.9844C15.5311 4.86135 15.4483 4.70045 15.2107 4.42147C14.9657 4.13383 14.6173 3.78888 14.0974 3.27578C13.5896 2.77471 13.2488 2.43942 12.9649 2.20367C12.69 1.97532 12.5316 1.89539 12.4099 1.85977Z" fill="#707579"/>
</svg>
