<svg width="48" height="48" viewBox="0 0 48 48" fill="none" xmlns="http://www.w3.org/2000/svg">
<rect width="48" height="48" rx="24" fill="white"/>
<rect width="48" height="48" rx="24" fill="url(#paint0_linear_1161_440)"/>
<path fill-rule="evenodd" clip-rule="evenodd" d="M14.1282 16.2607C14 16.6013 14 16.9962 14 17.7861V27.5859C14 29.1317 14.7278 30.5874 15.9645 31.5149C17.6145 32.7523 19.3724 33.8388 21.2171 34.7612L23.0817 35.6934L23.0824 35.6938C23.1052 35.7052 23.1168 35.711 23.1278 35.7164C23.6786 35.9833 24.3214 35.9833 24.8722 35.7164C24.8832 35.711 24.8948 35.7052 24.9176 35.6938L24.9183 35.6934L26.7829 34.7612C28.6276 33.8388 30.3855 32.7523 32.0355 31.5149C33.2722 30.5874 34 29.1317 34 27.5859V17.7861C34 16.9962 34 16.6013 33.8718 16.2607C33.7586 15.9598 33.5744 15.6906 33.335 15.476C33.0641 15.2331 32.696 15.0899 31.9598 14.8037L26.3197 12.6103C25.4621 12.2768 25.0333 12.11 24.5913 12.0439C24.1993 11.9854 23.8007 11.9854 23.4087 12.0439C22.9667 12.11 22.5379 12.2768 21.6803 12.6103L16.0402 14.8037C15.304 15.0899 14.9359 15.2331 14.665 15.476C14.4256 15.6906 14.2414 15.9598 14.1282 16.2607ZM21.2777 20.0415C21.2777 18.538 22.4965 17.3192 23.9999 17.3192C25.5033 17.3192 26.7221 18.538 26.7221 20.0415V21.7081H27.4443C27.9966 21.7081 28.4443 22.1558 28.4443 22.7081V27.3748C28.4443 27.9271 27.9966 28.3748 27.4443 28.3748H23.9999H20.5554C20.0032 28.3748 19.5554 27.9271 19.5554 27.3748V22.7081C19.5554 22.1558 20.0032 21.7081 20.5554 21.7081H21.2777V20.0415ZM25.7221 20.0415V21.7081H22.2777V20.0415C22.2777 19.0903 23.0487 18.3192 23.9999 18.3192C24.951 18.3192 25.7221 19.0903 25.7221 20.0415Z" fill="white"/>
<defs>
<linearGradient id="paint0_linear_1161_440" x1="24" y1="0" x2="24" y2="48" gradientUnits="userSpaceOnUse">
<stop stop-color="#83C7F7"/>
<stop offset="1" stop-color="#6396FD"/>
</linearGradient>
</defs>
</svg>
