<svg width="26" height="25" viewBox="0 0 26 25" fill="none" xmlns="http://www.w3.org/2000/svg">
<path fill-rule="evenodd" clip-rule="evenodd" d="M13.334 24C19.6853 24 24.834 18.8513 24.834 12.5C24.834 6.14873 19.6853 1 13.334 1C6.98271 1 1.83398 6.14873 1.83398 12.5C1.83398 18.8513 6.98271 24 13.334 24ZM9.74356 12.9541C9.41694 12.6274 8.88739 12.6274 8.56077 12.9541C8.23415 13.2807 8.23415 13.8102 8.56077 14.1369L12.7426 18.3187C13.0692 18.6453 13.5988 18.6453 13.9254 18.3187L18.1072 14.1369C18.4338 13.8102 18.4338 13.2807 18.1072 12.9541C17.7806 12.6274 17.251 12.6274 16.9244 12.9541L14.1703 15.7081V7.79545C14.1703 7.33354 13.7959 6.95909 13.334 6.95909C12.8721 6.95909 12.4976 7.33354 12.4976 7.79545V15.7081L9.74356 12.9541Z" fill="url(#paint0_linear_839_9341)"/>
<defs>
<linearGradient id="paint0_linear_839_9341" x1="2.33398" y1="4.5" x2="20.334" y2="24" gradientUnits="userSpaceOnUse">
<stop stop-color="#212121"/>
<stop offset="1" stop-color="#878787"/>
</linearGradient>
</defs>
</svg>
