<svg width="25" height="25" viewBox="0 0 25 25" fill="none" xmlns="http://www.w3.org/2000/svg">
<path fill-rule="evenodd" clip-rule="evenodd" d="M1.5 12.5C1.5 6.14873 6.64873 1 13 1C19.3513 1 24.5 6.14873 24.5 12.5C24.5 18.8513 19.3513 24 13 24C6.64873 24 1.5 18.8513 1.5 12.5ZM13.0009 6.56196C13.4151 6.56196 13.7509 6.89774 13.7509 7.31196V11.75H18.1883C18.6025 11.75 18.9383 12.0858 18.9383 12.5C18.9383 12.9142 18.6025 13.25 18.1883 13.25H13.7509V17.6879C13.7509 18.1021 13.4151 18.4379 13.0009 18.4379C12.5867 18.4379 12.2509 18.1021 12.2509 17.6879V13.25H7.81239C7.39817 13.25 7.06239 12.9142 7.06239 12.5C7.06239 12.0858 7.39817 11.75 7.81239 11.75H12.2509V7.31196C12.2509 6.89774 12.5867 6.56196 13.0009 6.56196Z" fill="url(#paint0_linear_767_511)"/>
<defs>
<linearGradient id="paint0_linear_767_511" x1="2" y1="4.5" x2="20" y2="24" gradientUnits="userSpaceOnUse">
<stop stop-color="#298BD5"/>
<stop offset="1" stop-color="#50A8EB"/>
</linearGradient>
</defs>
</svg>
