<svg width="48" height="48" viewBox="0 0 48 48" fill="none" xmlns="http://www.w3.org/2000/svg">
<rect width="48" height="48" rx="24" fill="white"/>
<rect width="48" height="48" rx="24" fill="url(#paint0_linear_3877_3202)"/>
<path d="M16.426 20.0577C16.4179 20.0408 16.4118 20.0269 16.4072 20.0158C16.4191 20.014 16.4342 20.0122 16.4528 20.0105C16.5615 20.0005 16.714 20 16.9635 20H18V22.7225L16.6782 20.5018C16.5506 20.2874 16.473 20.1562 16.426 20.0577Z" fill="white"/>
<path d="M19 22.7225V20H20.0365C20.286 20 20.4385 20.0005 20.5472 20.0105C20.5658 20.0122 20.5809 20.014 20.5928 20.0158C20.5882 20.0269 20.5821 20.0408 20.574 20.0577C20.527 20.1562 20.4494 20.2874 20.3218 20.5018L19 22.7225Z" fill="white"/>
<path fill-rule="evenodd" clip-rule="evenodd" d="M13.327 17.638C13 18.2798 13 19.1198 13 20.8V32H13.0312L14.8314 30.1998L16.6316 32H16.6943L18.4945 30.1998L20.2946 32H20.3564L22.1566 30.1998L23.9568 32H24.0195L25.8197 30.1998L27.6198 32H27.6826L29.4828 30.1998L31.2829 32H31.3457L33.1459 30.1998L34.946 32H35V20.8C35 19.1198 35 18.2798 34.673 17.638C34.3854 17.0735 33.9265 16.6146 33.362 16.327C32.7202 16 31.8802 16 30.2 16H17.8C16.1198 16 15.2798 16 14.638 16.327C14.0735 16.6146 13.6146 17.0735 13.327 17.638ZM24 19.7C23.5582 19.7 23.2 20.0582 23.2 20.5C23.2 20.9418 23.5582 21.3 24 21.3H31C31.4418 21.3 31.8 20.9418 31.8 20.5C31.8 20.0582 31.4418 19.7 31 19.7H24ZM23.2 23.5C23.2 23.0582 23.5582 22.7 24 22.7H28C28.4418 22.7 28.8 23.0582 28.8 23.5C28.8 23.9418 28.4418 24.3 28 24.3H24C23.5582 24.3 23.2 23.9418 23.2 23.5ZM16.942 19C16.7208 19 16.5215 19 16.3615 19.0147C16.1993 19.0295 15.9927 19.0647 15.8118 19.1972C15.5771 19.3692 15.427 19.6332 15.3993 19.9228C15.378 20.146 15.4534 20.3415 15.5236 20.4885C15.5928 20.6336 15.6948 20.8048 15.8079 20.9949L18.0704 24.7957C18.1605 24.9472 18.3237 25.04 18.5 25.04C18.6763 25.04 18.8395 24.9472 18.9296 24.7957L21.1921 20.9949C21.3052 20.8048 21.4072 20.6336 21.4764 20.4885C21.5466 20.3415 21.622 20.146 21.6007 19.9228C21.573 19.6332 21.4229 19.3692 21.1882 19.1972C21.0073 19.0647 20.8007 19.0295 20.6385 19.0147C20.4785 19 20.2792 19 20.058 19H16.942Z" fill="white"/>
<defs>
<linearGradient id="paint0_linear_3877_3202" x1="24" y1="0" x2="24" y2="48" gradientUnits="userSpaceOnUse">
<stop stop-color="#83ABF7"/>
<stop offset="1" stop-color="#6963FD"/>
</linearGradient>
</defs>
</svg>
