<svg width="26" height="25" viewBox="0 0 26 25" fill="none" xmlns="http://www.w3.org/2000/svg">
<path d="M2.51224 12.7327C8.41892 10.1598 12.3566 8.46346 14.3255 7.64393C19.9537 5.30373 21.1217 4.89729 21.8845 4.88368C22.0523 4.88083 22.4258 4.9223 22.6695 5.1195C22.8721 5.28569 22.9292 5.51043 22.9577 5.66807C22.983 5.82571 23.0178 6.18499 22.9893 6.46544C22.6855 9.66886 21.3655 17.4425 20.6944 21.0305C20.4127 22.5487 19.8524 23.0577 19.3111 23.1074C18.1335 23.2157 17.2409 22.33 16.1013 21.5832C14.3192 20.4142 13.3126 19.6868 11.5811 18.5463C9.5806 17.2282 10.8784 16.5036 12.0179 15.3198C12.3155 15.0099 17.5004 10.295 17.5985 9.86733C17.6112 9.81383 17.6239 9.61441 17.5036 9.50932C17.3865 9.40391 17.2123 9.43999 17.0857 9.46848C16.9053 9.509 14.0596 11.3918 8.53906 15.1166C7.73188 15.6718 7.00069 15.9424 6.34228 15.9282C5.62056 15.9127 4.22787 15.5192 3.19278 15.183C1.92661 14.7706 0.916788 14.5525 1.00542 13.852C1.04974 13.4873 1.55312 13.1141 2.51224 12.7327Z" fill="url(#paint0_linear_1008_43)"/>
<defs>
<linearGradient id="paint0_linear_1008_43" x1="1.47826" y1="7.65812" x2="15.2946" y2="25.7183" gradientUnits="userSpaceOnUse">
<stop stop-color="#2E94D7"/>
<stop offset="1" stop-color="#66B1E3"/>
</linearGradient>
</defs>
</svg>
