<svg width="45" height="45" viewBox="0 0 45 45" fill="none" xmlns="http://www.w3.org/2000/svg">
<path fill-rule="evenodd" clip-rule="evenodd" d="M29.3102 22C29.3102 25.4851 26.4851 28.3102 23 28.3102C19.5149 28.3102 16.6898 25.4851 16.6898 22C16.6898 18.5149 19.5149 15.6898 23 15.6898C26.4851 15.6898 29.3102 18.5149 29.3102 22ZM27.0328 22C27.0328 24.2273 25.2273 26.0328 23 26.0328C20.7727 26.0328 18.9672 24.2273 18.9672 22C18.9672 19.7727 20.7727 17.9672 23 17.9672C25.2273 17.9672 27.0328 19.7727 27.0328 22ZM10 16.9708C10 12.5686 13.5686 9 17.9708 9H28.0292C32.4314 9 36 12.5686 36 16.9708V27.0292C36 31.4314 32.4314 35 28.0292 35H17.9708C13.5686 35 10 31.4314 10 27.0292V16.9708ZM17.9708 11.2774H28.0292C31.1735 11.2774 33.7226 13.8265 33.7226 16.9708V27.0292C33.7226 30.1735 31.1735 32.7226 28.0292 32.7226H17.9708C14.8265 32.7226 12.2774 30.1735 12.2774 27.0292V16.9708C12.2774 13.8265 14.8265 11.2774 17.9708 11.2774Z" fill="#50A8EB"/>
</svg>
