<svg width="28" height="28" viewBox="0 0 28 28" fill="none" xmlns="http://www.w3.org/2000/svg">
<path d="M27.7038 14.5C27.7038 8.70099 23.0027 4 17.2036 4C16.5551 4 15.9206 4.0592 15.3047 4.17167C20.1972 5.0655 23.9058 9.34946 23.9058 14.5C23.9058 19.6506 20.1972 23.9346 15.3047 24.8284C15.9207 24.9408 16.5553 25 17.2037 25C23.0027 25 27.7038 20.2991 27.7038 14.5Z" fill="#50A8EB"/>
<path d="M21.3309 14.4999C21.3309 8.88563 16.7796 4.33447 11.1653 4.33447C5.55109 4.33447 1 8.88563 1 14.4999C1 20.1142 5.55109 24.6654 11.1654 24.6654C16.7796 24.6654 21.3309 20.1143 21.3309 14.4999ZM13.206 20.0041C13.206 20.4199 12.8691 20.757 12.4532 20.757H11.0665C10.6507 20.757 10.3136 20.42 10.3136 20.0041V11.5544L9.45538 12.0177C9.25112 12.1279 9.0075 12.1379 8.79506 12.0446C8.58255 11.9513 8.42512 11.7653 8.36792 11.5403L8.0939 10.4603C8.00887 10.1248 8.16334 9.77469 8.46841 9.61146L10.8588 8.33204C10.968 8.27349 11.0901 8.24289 11.2141 8.24289H12.4532C12.869 8.24289 13.206 8.57998 13.206 8.99578L13.206 20.0041Z" fill="#298BD5"/>
</svg>
