<svg width="28" height="28" viewBox="0 0 28 28" fill="none" xmlns="http://www.w3.org/2000/svg">
<path fill-rule="evenodd" clip-rule="evenodd" d="M11.895 4.90868C8.03621 4.90868 4.90868 8.0355 4.90868 11.8918C4.90868 15.7482 8.03621 18.875 11.895 18.875C13.8255 18.875 15.5715 18.0936 16.8369 16.8279C18.1012 15.5633 18.8814 13.8195 18.8814 11.8918C18.8814 8.0355 15.7538 4.90868 11.895 4.90868ZM3 11.8918C3 6.98065 6.9828 3 11.895 3C16.8073 3 20.7901 6.98065 20.7901 11.8918C20.7901 14.0025 20.0535 15.9424 18.8248 17.4669L24.721 23.3713C25.0934 23.7443 25.093 24.3485 24.72 24.721C24.3471 25.0934 23.7428 25.093 23.3704 24.72L17.4752 18.8166C15.9496 20.0464 14.0078 20.7837 11.895 20.7837C6.9828 20.7837 3 16.803 3 11.8918Z" fill="#50A8EB"/>
</svg>
