<svg width="28" height="28" viewBox="0 0 28 28" fill="none" xmlns="http://www.w3.org/2000/svg">
<path d="M13 11C13 12.6569 11.6569 14 10 14H1V7C1 5.34315 2.34315 4 4 4H13V11Z" fill="#50A8EB"/>
<path d="M15 11C15 12.6569 16.3431 14 18 14H27V7C27 5.34315 25.6569 4 24 4H15V11Z" fill="#50A8EB"/>
<path d="M13 19C13 17.3431 11.6569 16 10 16H1V22C1 23.6569 2.34315 25 4 25H13V19Z" fill="#50A8EB"/>
<path d="M15 19C15 17.3431 16.3431 16 18 16H27V22C27 23.6569 25.6569 25 24 25H15V19Z" fill="#50A8EB"/>
</svg>
