<svg width="28" height="28" viewBox="0 0 28 28" fill="none" xmlns="http://www.w3.org/2000/svg">
<path d="M1 9.4C1 7.15979 1 6.03969 1.40125 5.18404C1.7542 4.43139 2.31739 3.81947 3.01009 3.43597C3.79759 3 4.82848 3 6.89027 3H19.9593C22.0211 3 23.052 3 23.8395 3.43597C24.5322 3.81947 25.0954 4.43139 25.4483 5.18404C25.7556 5.8394 25.8276 6.6499 25.8444 8H19.4071C17.6918 8 16.8341 8 16.1576 8.30448C15.2555 8.71046 14.5388 9.48915 14.1652 10.4693C13.885 11.2044 13.885 12.1362 13.885 14C13.885 15.8638 13.885 16.7956 14.1652 17.5307C14.5388 18.5108 15.2555 19.2895 16.1576 19.6955C16.8341 20 17.6918 20 19.4071 20H25.8444C25.8276 21.3501 25.7556 22.1606 25.4483 22.816C25.0954 23.5686 24.5322 24.1805 23.8395 24.564C23.052 25 22.0211 25 19.9593 25H6.89026C4.82848 25 3.79759 25 3.01009 24.564C2.31739 24.1805 1.7542 23.5686 1.40125 22.816C1 21.9603 1 20.8402 1 18.6V9.4Z" fill="#50A8EB"/>
<path fill-rule="evenodd" clip-rule="evenodd" d="M15.4956 13.75C15.4956 12.3499 15.4956 11.6498 15.7464 11.115C15.967 10.6446 16.3189 10.2622 16.7519 10.0225C17.2441 9.75 17.8884 9.75 19.177 9.75H23.3186C24.6072 9.75 25.2515 9.75 25.7437 10.0225C26.1766 10.2622 26.5286 10.6446 26.7492 11.115C27 11.6498 27 12.3499 27 13.75V14.25C27 15.6501 27 16.3502 26.7492 16.885C26.5286 17.3554 26.1766 17.7378 25.7437 17.9775C25.2515 18.25 24.6072 18.25 23.3186 18.25H19.177C17.8884 18.25 17.2441 18.25 16.7519 17.9775C16.3189 17.7378 15.967 17.3554 15.7464 16.885C15.4956 16.3502 15.4956 15.6501 15.4956 14.25V13.75ZM21.2478 14C21.2478 15.1046 20.4237 16 19.4071 16C18.3905 16 17.5664 15.1046 17.5664 14C17.5664 12.8954 18.3905 12 19.4071 12C20.4237 12 21.2478 12.8954 21.2478 14Z" fill="#50A8EB"/>
</svg>
