<svg width="45" height="45" viewBox="0 0 45 45" fill="none" xmlns="http://www.w3.org/2000/svg">
<rect width="45" height="45" rx="22.5" fill="#50A8EB"/>
<path d="M11.5122 20.8491C17.4189 18.2763 21.3566 16.5799 23.3255 15.7604C28.9537 13.4202 30.1217 13.0137 30.8845 13.0001C31.0523 12.9973 31.4258 13.0388 31.6695 13.236C31.8721 13.4021 31.9292 13.6269 31.9577 13.7845C31.983 13.9422 32.0178 14.3014 31.9893 14.5819C31.6855 17.7853 30.3655 25.559 29.6944 29.147C29.4127 30.6652 28.8524 31.1742 28.3111 31.2239C27.1335 31.3321 26.2409 30.4465 25.1013 29.6997C23.3192 28.5307 22.3126 27.8033 20.5811 26.6628C18.5806 25.3447 19.8784 24.6201 21.0179 23.4362C21.3155 23.1263 26.5004 18.4114 26.5985 17.9838C26.6112 17.9303 26.6239 17.7309 26.5036 17.6258C26.3865 17.5204 26.2123 17.5564 26.0857 17.5849C25.9053 17.6255 23.0596 19.5083 17.5391 23.233C16.7319 23.7882 16.0007 24.0589 15.3423 24.0446C14.6206 24.0291 13.2279 23.6357 12.1928 23.2995C10.9266 22.887 9.91679 22.6689 10.0054 21.9684C10.0497 21.6038 10.5531 21.2306 11.5122 20.8491Z" fill="white"/>
</svg>
