<svg width="40" height="40" viewBox="0 0 40 40" fill="none" xmlns="http://www.w3.org/2000/svg">
<g clip-path="url(#clip0_1018_8751)">
<g clip-path="url(#clip1_1018_8751)">
<path d="M46.5308 3.07692C45.4646 1.24462 43.5031 0 41.2308 0H19.6923V3.07692H46.5308ZM-8 30.7692H47.3846V33.8462H-8V30.7692ZM19.6923 18.4615H47.3846V21.5385H19.6923V18.4615ZM19.6923 12.3077H47.3846V15.3846H19.6923V12.3077ZM-8 24.6154H47.3846V27.6923H-8V24.6154ZM-1.84615 40H41.2308C43.5031 40 45.4646 38.7554 46.5308 36.9231H-7.14615C-6.08 38.7554 -4.11846 40 -1.84615 40ZM19.6923 6.15385H47.3846V9.23077H19.6923V6.15385Z" fill="#B22334"/>
<path d="M-7.89538 34.8908C-7.86923 35.0338 -7.84 35.1769 -7.80462 35.3169C-7.76462 35.4723 -7.71538 35.6215 -7.66308 35.7723C-7.52615 36.1708 -7.36 36.5554 -7.15077 36.9154L-7.14615 36.9231H46.5308L46.5338 36.9169C46.7415 36.5584 46.9077 36.1738 47.0446 35.7769C47.0969 35.6246 47.1477 35.4723 47.1877 35.3138C47.2231 35.1754 47.2523 35.0338 47.2785 34.8908C47.3415 34.5523 47.3846 34.2046 47.3846 33.8461H-8C-8 34.2046 -7.95692 34.5508 -7.89538 34.8908ZM-8 27.6923H47.3846V30.7692H-8V27.6923ZM-8 21.5384V24.6154H47.3846V21.5384H19.6923H-8ZM19.6923 15.3846H47.3846V18.4615H19.6923V15.3846ZM19.6923 9.23075H47.3846V12.3077H19.6923V9.23075ZM-8 6.15383C-8 5.79537 -7.95385 5.45075 -7.89538 5.10921C-7.95692 5.44921 -8 5.79537 -8 6.15383ZM-7.80308 4.68306C-7.76462 4.52613 -7.71077 4.3769 -7.66154 4.22614C-7.71385 4.3769 -7.76308 4.52767 -7.80308 4.68306ZM19.6923 6.15383H47.3846C47.3846 5.79537 47.3415 5.44767 47.2785 5.10767C47.2523 4.96613 47.2246 4.8246 47.1877 4.68613C47.1462 4.52767 47.0969 4.37383 47.0431 4.22152C46.9062 3.8246 46.74 3.44152 46.5323 3.08306C46.5338 3.08152 46.5323 3.07844 46.5308 3.0769H19.6923V6.15383Z" fill="#EEEEEE"/>
<path d="M19.6923 0H-1.84615C-5.24462 0 -8 2.75538 -8 6.15385V21.5385H19.6923V0Z" fill="#3C3B6E"/>
<path d="M-4.92151 4.19383L-3.97074 4.8846L-4.33382 5.99998L-3.38459 5.31075L-2.43382 5.99998L-2.79689 4.8846L-1.84612 4.19383H-3.02151L-3.38459 3.0769L-3.74612 4.19383H-4.92151ZM-1.84459 7.27075L-0.893816 7.96152L-1.25689 9.0769L-0.307662 8.38767L0.643107 9.0769L0.28003 7.96152L1.2308 7.27075H0.0554147L-0.307662 6.15383L-0.669201 7.27075H-1.84459ZM4.30926 7.27075L5.26003 7.96152L4.89695 9.0769L5.84618 8.38767L6.79695 9.0769L6.43388 7.96152L7.38465 7.27075H6.20926L5.84618 6.15383L5.48465 7.27075H4.30926ZM10.4631 7.27075L11.4139 7.96152L11.0508 9.0769L12 8.38767L12.9508 9.0769L12.5877 7.96152L13.5385 7.27075H12.3631L12 6.15383L11.6385 7.27075H10.4631ZM-1.84459 13.4246L-0.893816 14.1154L-1.25689 15.2307L-0.307662 14.5415L0.643107 15.2307L0.28003 14.1154L1.2308 13.4246H0.0554147L-0.307662 12.3077L-0.669201 13.4246H-1.84459ZM4.30926 13.4246L5.26003 14.1154L4.89695 15.2307L5.84618 14.5415L6.79695 15.2307L6.43388 14.1154L7.38465 13.4246H6.20926L5.84618 12.3077L5.48465 13.4246H4.30926ZM10.4631 13.4246L11.4139 14.1154L11.0508 15.2307L12 14.5415L12.9508 15.2307L12.5877 14.1154L13.5385 13.4246H12.3631L12 12.3077L11.6385 13.4246H10.4631ZM1.23234 4.19383L2.18311 4.8846L1.82003 5.99998L2.76926 5.31075L3.72003 5.99998L3.35695 4.8846L4.30772 4.19383H3.13234L2.76926 3.0769L2.40772 4.19383H1.23234ZM7.38618 4.19383L8.33695 4.8846L7.97388 5.99998L8.92311 5.31075L9.87388 5.99998L9.5108 4.8846L10.4616 4.19383H9.28618L8.92311 3.0769L8.56157 4.19383H7.38618ZM13.54 4.19383L14.4908 4.8846L14.1277 5.99998L15.077 5.31075L16.0277 5.99998L15.6646 4.8846L16.6154 4.19383H15.44L15.077 3.0769L14.7154 4.19383H13.54ZM-4.92151 10.3477L-3.97074 11.0384L-4.33382 12.1538L-3.38459 11.4646L-2.43382 12.1538L-2.79689 11.0384L-1.84612 10.3477H-3.02151L-3.38459 9.23075L-3.74612 10.3477H-4.92151ZM1.82003 12.1538L2.76926 11.4646L3.72003 12.1538L3.35695 11.0384L4.30772 10.3477H3.13234L2.76926 9.23075L2.40772 10.3477H1.23234L2.18311 11.0384L1.82003 12.1538ZM7.38618 10.3477L8.33695 11.0384L7.97388 12.1538L8.92311 11.4646L9.87388 12.1538L9.5108 11.0384L10.4616 10.3477H9.28618L8.92311 9.23075L8.56157 10.3477H7.38618ZM13.54 10.3477L14.4908 11.0384L14.1277 12.1538L15.077 11.4646L16.0277 12.1538L15.6646 11.0384L16.6154 10.3477H15.44L15.077 9.23075L14.7154 10.3477H13.54ZM-4.92151 16.5015L-3.97074 17.1923L-4.33382 18.3077L-3.38459 17.6184L-2.43382 18.3077L-2.79689 17.1923L-1.84612 16.5015H-3.02151L-3.38459 15.3846L-3.74612 16.5015H-4.92151ZM1.82003 18.3077L2.76926 17.6184L3.72003 18.3077L3.35695 17.1923L4.30772 16.5015H3.13234L2.76926 15.3846L2.40772 16.5015H1.23234L2.18311 17.1923L1.82003 18.3077ZM7.38618 16.5015L8.33695 17.1923L7.97388 18.3077L8.92311 17.6184L9.87388 18.3077L9.5108 17.1923L10.4616 16.5015H9.28618L8.92311 15.3846L8.56157 16.5015H7.38618ZM13.54 16.5015L14.4908 17.1923L14.1277 18.3077L15.077 17.6184L16.0277 18.3077L15.6646 17.1923L16.6154 16.5015H15.44L15.077 15.3846L14.7154 16.5015H13.54Z" fill="white"/>
</g>
</g>
<defs>
<clipPath id="clip0_1018_8751">
<rect width="40" height="40" rx="20" fill="white"/>
</clipPath>
<clipPath id="clip1_1018_8751">
<rect width="55.3846" height="40" fill="white" transform="translate(-8)"/>
</clipPath>
</defs>
</svg>
