<svg width="45" height="45" viewBox="0 0 45 45" fill="none" xmlns="http://www.w3.org/2000/svg">
<path fill-rule="evenodd" clip-rule="evenodd" d="M20 25C20.5523 25 21 24.5523 21 24C21 23.4477 20.5523 23 20 23H15.4142L25.7071 12.7071C26.0976 12.3166 26.0976 11.6834 25.7071 11.2929C25.3166 10.9024 24.6834 10.9024 24.2929 11.2929L14 21.5858V17C14 16.4477 13.5523 16 13 16C12.4477 16 12 16.4477 12 17V24C12 24.5523 12.4477 25 13 25H20ZM26 19C25.4477 19 25 19.4477 25 20C25 20.5523 25.4477 21 26 21H30.5858L20.2929 31.2929C19.9024 31.6834 19.9024 32.3166 20.2929 32.7071C20.6834 33.0976 21.3166 33.0976 21.7071 32.7071L32 22.4142V27C32 27.5523 32.4477 28 33 28C33.5523 28 34 27.5523 34 27V20C34 19.4477 33.5523 19 33 19H26Z" fill="#50A8EB"/>
</svg>
