<svg width="26" height="25" viewBox="0 0 26 25" fill="none" xmlns="http://www.w3.org/2000/svg">
<path fill-rule="evenodd" clip-rule="evenodd" d="M1.5 12.5C1.5 6.14873 6.64873 1 13 1C19.3513 1 24.5 6.14873 24.5 12.5C24.5 18.8513 19.3513 24 13 24C6.64873 24 1.5 18.8513 1.5 12.5ZM11.2264 6.2584C11.4979 6.5299 11.4979 6.9701 11.2264 7.2416L9.79962 8.66841H17.5303C17.9142 8.66841 18.2255 8.97967 18.2255 9.36364C18.2255 9.7476 17.9142 10.0589 17.5303 10.0589H9.79962L11.2264 11.4857C11.4979 11.7572 11.4979 12.1974 11.2264 12.4689C10.9549 12.7404 10.5147 12.7404 10.2432 12.4689L7.62959 9.85524C7.49921 9.72486 7.42596 9.54802 7.42596 9.36364C7.42596 9.17925 7.49921 9.00242 7.62959 8.87204L10.2432 6.2584C10.5147 5.9869 10.9549 5.9869 11.2264 6.2584ZM14.9443 13.5143C14.6728 13.2428 14.6728 12.8026 14.9443 12.5311C15.2158 12.2596 15.656 12.2596 15.9275 12.5311L18.5411 15.1448C18.6715 15.2751 18.7448 15.452 18.7448 15.6364C18.7448 15.8207 18.6715 15.9976 18.5411 16.128L15.9275 18.7416C15.656 19.0131 15.2158 19.0131 14.9443 18.7416C14.6728 18.4701 14.6728 18.0299 14.9443 17.7584L16.3711 16.3316H8.64046C8.25649 16.3316 7.94523 16.0203 7.94523 15.6364C7.94523 15.2524 8.25649 14.9411 8.64046 14.9411H16.3711L14.9443 13.5143Z" fill="url(#paint0_linear_1008_61)"/>
<defs>
<linearGradient id="paint0_linear_1008_61" x1="2" y1="4.5" x2="20" y2="24" gradientUnits="userSpaceOnUse">
<stop stop-color="#212121"/>
<stop offset="1" stop-color="#878787"/>
</linearGradient>
</defs>
</svg>
