<svg width="45" height="45" viewBox="0 0 45 45" fill="none" xmlns="http://www.w3.org/2000/svg">
<path opacity="0.4" fill-rule="evenodd" clip-rule="evenodd" d="M30.3509 11.4993C32.535 11.4993 34.0261 13.1426 34.0261 15.1745C34.0261 17.0699 32.731 18.6292 30.7762 18.8235C30.6353 18.843 30.4931 18.8518 30.3509 18.8497C28.1668 18.8497 26.6757 17.2064 26.6757 15.1745C26.6755 14.9396 26.6972 14.7053 26.7404 14.4745C27.0397 12.7803 28.4258 11.4993 30.3509 11.4993ZM35.9725 32.3468C36.0709 32.2483 36.1262 32.1148 36.1262 31.9755V31.9586C36.1263 29.8559 36.1265 19.2201 31.0684 19.646C29.2536 19.8035 28.6708 20.8361 28.256 22.1067C28.1771 22.3482 28.1045 22.5983 28.0308 22.8522C27.7167 23.934 27.3821 25.0866 26.4551 25.9569L26.3134 26.0829C26.126 26.2315 25.9296 26.3682 25.7253 26.4924C25.6567 26.5396 25.5848 26.5817 25.5101 26.6185C25.4859 26.6322 25.4618 26.6438 25.4362 26.656C25.4228 26.6624 25.409 26.669 25.3946 26.6762C24.8169 26.9747 24.1881 27.1617 23.5412 27.2275H23.4992C23.3364 27.2485 23.1684 27.2485 23.0057 27.2485H23.0057C22.8429 27.2485 22.6749 27.2432 22.5174 27.2275C22.485 27.5841 22.471 27.9422 22.4754 28.3003C22.4742 28.336 22.4802 28.3715 22.4931 28.4048C22.5059 28.4381 22.5253 28.4685 22.5501 28.4941C22.575 28.5197 22.6047 28.5401 22.6375 28.554C22.6704 28.5679 22.7057 28.5751 22.7414 28.5751H23.5202C23.5557 28.5745 23.591 28.5813 23.6238 28.595C23.6565 28.6087 23.6862 28.6289 23.7108 28.6545C23.7354 28.6801 23.7545 28.7105 23.7669 28.7438C23.7792 28.7771 23.7846 28.8126 23.7827 28.8481C23.7564 29.3564 23.7564 29.8658 23.7827 30.3742L23.7828 30.3742C23.851 30.3689 23.9192 30.3637 23.9822 30.3532C24.1975 30.3322 24.4075 30.2954 24.6123 30.2587C24.6685 30.2474 24.7308 30.2332 24.7887 30.2199C24.8388 30.2084 24.8855 30.1977 24.922 30.1904C24.987 30.1774 25.0484 30.1609 25.1121 30.1437C25.1256 30.14 25.1393 30.1364 25.1531 30.1327C25.2721 30.1012 25.3666 30.0749 25.5031 30.0329C25.6396 29.9909 25.7813 29.9437 25.9074 29.8964C25.9285 29.8885 25.9494 29.8807 25.9701 29.873C26.0725 29.8351 26.1701 29.7989 26.2749 29.7494C26.3192 29.7284 26.3636 29.7084 26.4078 29.6884C26.489 29.6516 26.5694 29.6152 26.6476 29.5744C27.0256 29.3947 27.389 29.1858 27.7345 28.9496C27.801 29.4132 27.8308 29.8814 27.8237 30.3497C27.8237 30.7977 27.7992 31.4978 27.766 32.0228C27.7619 32.0841 27.7705 32.1456 27.7911 32.2034C27.8118 32.2612 27.8442 32.3142 27.8862 32.359C27.9282 32.4038 27.979 32.4395 28.0354 32.4639C28.0918 32.4882 28.1526 32.5007 28.214 32.5006H35.6012C35.7405 32.5006 35.874 32.4453 35.9725 32.3468Z" fill="#50A8EB"/>
<path fill-rule="evenodd" clip-rule="evenodd" d="M15.6504 11.4993C13.468 11.4993 11.9752 13.1426 11.9752 15.1745C11.9752 17.0699 13.2737 18.6292 15.2251 18.8235C15.366 18.843 15.5082 18.8517 15.6504 18.8497C17.8345 18.8497 19.3256 17.2064 19.3256 15.1745C19.3269 14.9398 19.3064 14.7054 19.2644 14.4745C18.9668 12.7803 17.5755 11.4993 15.6504 11.4993ZM23.5766 30.3812C23.6469 30.3814 23.7171 30.3761 23.7866 30.3654L23.7884 30.3602C23.7616 29.8524 23.7616 29.3436 23.7884 28.8358C23.7903 28.8003 23.7849 28.7647 23.7725 28.7313C23.7602 28.6979 23.7411 28.6674 23.7165 28.6417C23.6919 28.616 23.6623 28.5955 23.6295 28.5817C23.5967 28.5678 23.5615 28.5608 23.5259 28.5611H22.7401C22.6706 28.5611 22.6039 28.5337 22.5544 28.4849C22.505 28.4361 22.4767 28.3698 22.4758 28.3003C22.4728 27.9439 22.488 27.5876 22.5213 27.2327C21.8284 27.171 21.1551 26.9698 20.5419 26.6412C20.444 26.5951 20.3493 26.5425 20.2584 26.4837C20.2473 26.4769 20.2363 26.4702 20.2254 26.4635C20.1696 26.4294 20.1169 26.3972 20.0641 26.3577C19.9696 26.298 19.8785 26.2332 19.7911 26.1634C18.6796 25.2757 18.3153 24.0247 17.9746 22.8546C17.8969 22.5877 17.8204 22.3249 17.7365 22.0717C17.334 20.8186 16.7442 19.7965 14.9363 19.6443C9.87471 19.2203 9.87495 29.8437 9.875 31.9564V31.9755C9.875 32.1148 9.93032 32.2483 10.0288 32.3468C10.1272 32.4453 10.2608 32.5006 10.4 32.5006H17.7837C17.8473 32.5005 17.9102 32.4873 17.9685 32.4619C18.0267 32.4364 18.0791 32.3991 18.1223 32.3525C18.1655 32.3058 18.1986 32.2507 18.2196 32.1907C18.2405 32.1307 18.2488 32.067 18.244 32.0035C18.2108 31.4873 18.188 30.7942 18.188 30.3462C18.1807 29.8779 18.2105 29.4097 18.2773 28.9461C18.3595 29.0109 18.447 29.0686 18.5345 29.1211C18.5637 29.1386 18.5933 29.1561 18.6229 29.1736C18.682 29.2086 18.7411 29.2436 18.7971 29.2786C18.8811 29.3311 18.9703 29.3784 19.0648 29.4256C19.1684 29.4859 19.2753 29.5402 19.3851 29.5884C19.4503 29.62 19.5181 29.6496 19.5831 29.6779C19.6368 29.7012 19.6884 29.7238 19.7351 29.7459C19.8033 29.7783 19.873 29.8053 19.9432 29.8325C19.9793 29.8465 20.0156 29.8605 20.0519 29.8754C20.2821 29.9733 20.5197 30.0529 20.7624 30.1134L21.0985 30.1922C21.2035 30.2184 21.3032 30.2394 21.4082 30.2604C21.613 30.2972 21.823 30.3339 22.0383 30.3549C22.1013 30.3654 22.1695 30.3759 22.2378 30.3759H22.285H22.3585C22.3844 30.3776 22.4107 30.3798 22.4373 30.382C22.4951 30.3868 22.5546 30.3917 22.6158 30.3917H22.6245C22.7506 30.4022 22.8766 30.4022 23.0078 30.4022C23.0741 30.4022 23.1391 30.3995 23.2034 30.3969C23.2664 30.3943 23.3287 30.3917 23.3911 30.3917H23.4016C23.4357 30.3917 23.4678 30.3888 23.4983 30.386C23.5257 30.3836 23.5517 30.3812 23.5766 30.3812Z" fill="#50A8EB"/>
</svg>
