<svg width="45" height="45" viewBox="0 0 45 45" fill="none" xmlns="http://www.w3.org/2000/svg">
<path d="M24.4986 35C24.3113 35 24.1502 34.9363 24.0153 34.8089C23.8804 34.6815 23.7942 34.5166 23.7567 34.3143C23.5769 33.1078 23.3858 32.0961 23.1835 31.2793C22.9811 30.4625 22.7188 29.7918 22.3966 29.2672C22.0744 28.7426 21.6547 28.323 21.1376 28.0082C20.6206 27.6935 19.9574 27.4387 19.148 27.2438C18.3462 27.049 17.3532 26.8729 16.1692 26.7155C15.9594 26.693 15.787 26.6106 15.6521 26.4682C15.5247 26.3258 15.461 26.1572 15.461 25.9624C15.461 25.7675 15.5247 25.5989 15.6521 25.4566C15.787 25.3142 15.9594 25.2317 16.1692 25.2093C17.3532 25.0819 18.3499 24.9282 19.1593 24.7484C19.9761 24.561 20.6468 24.3062 21.1714 23.984C21.6959 23.6618 22.1193 23.2346 22.4416 22.7026C22.7638 22.1705 23.0223 21.4923 23.2172 20.668C23.4195 19.8361 23.5994 18.817 23.7567 17.6105C23.7867 17.4081 23.8692 17.247 24.004 17.1271C24.1464 16.9997 24.3113 16.936 24.4986 16.936C24.6935 16.936 24.8583 16.9997 24.9932 17.1271C25.1281 17.247 25.2143 17.4081 25.2518 17.6105C25.4241 18.817 25.6115 19.8324 25.8138 20.6567C26.0162 21.481 26.2747 22.1592 26.5894 22.6913C26.9117 23.2234 27.3351 23.6505 27.8596 23.9728C28.3842 24.2875 29.0474 24.5386 29.8493 24.7259C30.6586 24.9058 31.6553 25.0669 32.8393 25.2093C33.0492 25.2392 33.2178 25.3254 33.3452 25.4678C33.4726 25.6027 33.5363 25.7675 33.5363 25.9624C33.5363 26.1572 33.4688 26.3258 33.3339 26.4682C33.2065 26.6106 33.0417 26.693 32.8393 26.7155C31.6553 26.8504 30.6549 27.0115 29.838 27.1989C29.0287 27.3787 28.3617 27.626 27.8372 27.9408C27.3126 28.2555 26.8892 28.6827 26.567 29.2222C26.2447 29.7543 25.9862 30.4325 25.7913 31.2568C25.5965 32.0886 25.4166 33.1078 25.2518 34.3143C25.2143 34.5166 25.1281 34.6815 24.9932 34.8089C24.8658 34.9363 24.701 35 24.4986 35ZM16.6076 22.5115C16.3378 22.5115 16.1879 22.3653 16.158 22.0731C16.068 21.3387 15.9706 20.7616 15.8657 20.342C15.7683 19.9148 15.6109 19.5963 15.3936 19.3865C15.1763 19.1692 14.8503 19.0081 14.4156 18.9032C13.9885 18.7907 13.3965 18.6746 12.6396 18.5547C12.3323 18.5097 12.1787 18.3561 12.1787 18.0938C12.1787 17.8315 12.3136 17.6779 12.5834 17.6329C13.3552 17.4906 13.9585 17.3632 14.3932 17.2508C14.8353 17.1309 15.165 16.9697 15.3823 16.7674C15.6072 16.5576 15.7683 16.2466 15.8657 15.8344C15.9706 15.4223 16.068 14.8452 16.158 14.1033C16.1879 13.8111 16.3378 13.6649 16.6076 13.6649C16.8849 13.6649 17.0385 13.8073 17.0685 14.0921C17.1659 14.849 17.2633 15.441 17.3607 15.8681C17.4656 16.2953 17.6268 16.6175 17.8441 16.8348C18.0614 17.0522 18.3874 17.2133 18.822 17.3182C19.2567 17.4231 19.8599 17.528 20.6318 17.6329C20.7517 17.6479 20.8491 17.6966 20.9241 17.7791C21.0065 17.8615 21.0477 17.9664 21.0477 18.0938C21.0477 18.3486 20.9128 18.5022 20.643 18.5547C19.8637 18.6971 19.2567 18.8282 18.822 18.9481C18.3874 19.0605 18.0614 19.2216 17.8441 19.4315C17.6268 19.6413 17.4656 19.956 17.3607 20.3757C17.2633 20.7879 17.1659 21.3611 17.0685 22.0955C17.0535 22.2154 17.0048 22.3166 16.9223 22.399C16.8399 22.474 16.735 22.5115 16.6076 22.5115ZM22.0706 14.5754C21.8983 14.5754 21.8008 14.4855 21.7784 14.3057C21.6959 13.8485 21.6247 13.4926 21.5648 13.2378C21.5048 12.9755 21.4074 12.7769 21.2725 12.642C21.1451 12.5071 20.9465 12.4022 20.6768 12.3273C20.4145 12.2448 20.0435 12.1624 19.5639 12.08C19.3766 12.05 19.2829 11.9526 19.2829 11.7877C19.2829 11.6229 19.3728 11.5254 19.5527 11.4955C20.0323 11.398 20.407 11.3119 20.6768 11.2369C20.9465 11.162 21.1451 11.0571 21.2725 10.9222C21.4074 10.7873 21.5048 10.5924 21.5648 10.3377C21.6247 10.0829 21.6959 9.73065 21.7784 9.28102C21.8008 9.09367 21.8983 9 22.0706 9C22.2355 9 22.3329 9.08993 22.3629 9.26978C22.4378 9.72691 22.5053 10.0866 22.5652 10.3489C22.6327 10.6112 22.7301 10.8098 22.8575 10.9447C22.9924 11.0796 23.191 11.1845 23.4532 11.2594C23.723 11.3268 24.1015 11.4055 24.5886 11.4955C24.7684 11.5254 24.8583 11.6229 24.8583 11.7877C24.8583 11.9526 24.7684 12.05 24.5886 12.08C24.109 12.1699 23.7343 12.2561 23.4645 12.3385C23.1947 12.4135 22.9961 12.5184 22.8687 12.6533C22.7413 12.7882 22.6439 12.9867 22.5765 13.249C22.509 13.5038 22.4378 13.856 22.3629 14.3057C22.3329 14.4855 22.2355 14.5754 22.0706 14.5754Z" fill="#50A8EB"/>
</svg>
