<svg width="26" height="25" viewBox="0 0 26 25" fill="none" xmlns="http://www.w3.org/2000/svg">
<path fill-rule="evenodd" clip-rule="evenodd" d="M6.49204 1H6.525H8.125H8.15796H8.15798C8.68995 0.999988 9.13845 0.999978 9.50578 1.02999C9.8903 1.06141 10.2579 1.12978 10.6075 1.30791C11.1391 1.57875 11.5713 2.01092 11.8421 2.54248C12.0202 2.89208 12.0886 3.2597 12.12 3.64422C12.15 4.01155 12.15 4.46006 12.15 4.99203V5.025V6.625V6.65797C12.15 7.18995 12.15 7.63845 12.12 8.00578C12.0886 8.3903 12.0202 8.75793 11.8421 9.10752C11.5713 9.63908 11.1391 10.0713 10.6075 10.3421C10.2579 10.5202 9.8903 10.5886 9.50578 10.62C9.13845 10.65 8.68995 10.65 8.15797 10.65H8.125H6.525H6.49203C5.96006 10.65 5.51155 10.65 5.14422 10.62C4.7597 10.5886 4.39208 10.5202 4.04248 10.3421C3.51092 10.0713 3.07875 9.63908 2.80791 9.10752C2.62978 8.75793 2.56141 8.3903 2.52999 8.00578C2.49998 7.63845 2.49999 7.18995 2.5 6.65798V6.65796V6.625V5.025V4.99204V4.99202C2.49999 4.46005 2.49998 4.01155 2.52999 3.64422C2.56141 3.2597 2.62978 2.89208 2.80791 2.54248C3.07875 2.01092 3.51092 1.57875 4.04248 1.30791C4.39208 1.12978 4.7597 1.06141 5.14422 1.02999C5.51155 0.999978 5.96005 0.999988 6.49202 1H6.49204ZM5.27859 2.67451C4.9961 2.69759 4.86979 2.73821 4.79156 2.77807C4.57047 2.89072 4.39072 3.07047 4.27807 3.29156C4.23821 3.36979 4.19759 3.4961 4.17451 3.77859C4.15064 4.0707 4.15 4.45134 4.15 5.025V6.625C4.15 7.19867 4.15064 7.5793 4.17451 7.87142C4.19759 8.1539 4.23821 8.28021 4.27807 8.35844C4.39072 8.57953 4.57047 8.75928 4.79156 8.87193C4.86979 8.91179 4.9961 8.95241 5.27859 8.97549C5.5707 8.99936 5.95134 9 6.525 9H8.125C8.69867 9 9.0793 8.99936 9.37142 8.97549C9.6539 8.95241 9.78021 8.91179 9.85844 8.87193C10.0795 8.75928 10.2593 8.57953 10.3719 8.35844C10.4118 8.28021 10.4524 8.1539 10.4755 7.87142C10.4994 7.5793 10.5 7.19867 10.5 6.625V5.025C10.5 4.45134 10.4994 4.0707 10.4755 3.77859C10.4524 3.4961 10.4118 3.36979 10.3719 3.29156C10.2593 3.07047 10.0795 2.89072 9.85844 2.77807C9.78021 2.73821 9.6539 2.69759 9.37142 2.67451C9.0793 2.65064 8.69867 2.65 8.125 2.65H6.525C5.95134 2.65 5.5707 2.65064 5.27859 2.67451ZM6.075 5.375C6.075 5.09498 6.075 4.95496 6.1295 4.84801C6.17743 4.75393 6.25393 4.67743 6.34801 4.6295C6.45496 4.575 6.59498 4.575 6.875 4.575H7.775C8.05503 4.575 8.19504 4.575 8.302 4.6295C8.39608 4.67743 8.47257 4.75393 8.5205 4.84801C8.575 4.95496 8.575 5.09498 8.575 5.375V6.275C8.575 6.55503 8.575 6.69504 8.5205 6.802C8.47257 6.89608 8.39608 6.97257 8.302 7.0205C8.19504 7.075 8.05503 7.075 7.775 7.075H6.875C6.59498 7.075 6.45496 7.075 6.34801 7.0205C6.25393 6.97257 6.17743 6.89608 6.1295 6.802C6.075 6.69504 6.075 6.55503 6.075 6.275V5.375ZM6.49204 13H6.525H8.125H8.15796H8.15798C8.68995 13 9.13845 13 9.50578 13.03C9.8903 13.0614 10.2579 13.1298 10.6075 13.3079C11.1391 13.5787 11.5713 14.0109 11.8421 14.5425C12.0202 14.8921 12.0886 15.2597 12.12 15.6442C12.15 16.0116 12.15 16.4601 12.15 16.992V17.025V18.625V18.658C12.15 19.1899 12.15 19.6385 12.12 20.0058C12.0886 20.3903 12.0202 20.7579 11.8421 21.1075C11.5713 21.6391 11.1391 22.0713 10.6075 22.3421C10.2579 22.5202 9.8903 22.5886 9.50578 22.62C9.13845 22.65 8.68995 22.65 8.15797 22.65H8.125H6.525H6.49203C5.96006 22.65 5.51155 22.65 5.14422 22.62C4.7597 22.5886 4.39208 22.5202 4.04248 22.3421C3.51092 22.0713 3.07875 21.6391 2.80791 21.1075C2.62978 20.7579 2.56141 20.3903 2.52999 20.0058C2.49998 19.6385 2.49999 19.1899 2.5 18.658V18.658V18.625V17.025V16.992V16.992C2.49999 16.4601 2.49998 16.0115 2.52999 15.6442C2.56141 15.2597 2.62978 14.8921 2.80791 14.5425C3.07875 14.0109 3.51092 13.5787 4.04248 13.3079C4.39208 13.1298 4.7597 13.0614 5.14422 13.03C5.51155 13 5.96005 13 6.49202 13H6.49204ZM5.27859 14.6745C4.9961 14.6976 4.86979 14.7382 4.79156 14.7781C4.57047 14.8907 4.39072 15.0705 4.27807 15.2916C4.23821 15.3698 4.19759 15.4961 4.17451 15.7786C4.15064 16.0707 4.15 16.4513 4.15 17.025V18.625C4.15 19.1987 4.15064 19.5793 4.17451 19.8714C4.19759 20.1539 4.23821 20.2802 4.27807 20.3584C4.39072 20.5795 4.57047 20.7593 4.79156 20.8719C4.86979 20.9118 4.9961 20.9524 5.27859 20.9755C5.5707 20.9994 5.95134 21 6.525 21H8.125C8.69867 21 9.0793 20.9994 9.37142 20.9755C9.6539 20.9524 9.78021 20.9118 9.85844 20.8719C10.0795 20.7593 10.2593 20.5795 10.3719 20.3584C10.4118 20.2802 10.4524 20.1539 10.4755 19.8714C10.4994 19.5793 10.5 19.1987 10.5 18.625V17.025C10.5 16.4513 10.4994 16.0707 10.4755 15.7786C10.4524 15.4961 10.4118 15.3698 10.3719 15.2916C10.2593 15.0705 10.0795 14.8907 9.85844 14.7781C9.78021 14.7382 9.6539 14.6976 9.37142 14.6745C9.0793 14.6506 8.69867 14.65 8.125 14.65H6.525C5.95134 14.65 5.5707 14.6506 5.27859 14.6745ZM6.075 17.375C6.075 17.095 6.075 16.955 6.1295 16.848C6.17743 16.7539 6.25393 16.6774 6.34801 16.6295C6.45496 16.575 6.59498 16.575 6.875 16.575H7.775C8.05503 16.575 8.19504 16.575 8.302 16.6295C8.39608 16.6774 8.47257 16.7539 8.5205 16.848C8.575 16.955 8.575 17.095 8.575 17.375V18.275C8.575 18.555 8.575 18.695 8.5205 18.802C8.47257 18.8961 8.39608 18.9726 8.302 19.0205C8.19504 19.075 8.05503 19.075 7.775 19.075H6.875C6.59498 19.075 6.45496 19.075 6.34801 19.0205C6.25393 18.9726 6.17743 18.8961 6.1295 18.802C6.075 18.695 6.075 18.555 6.075 18.275V17.375ZM15.075 14.375C15.075 14.095 15.075 13.955 15.1295 13.848C15.1774 13.7539 15.2539 13.6774 15.348 13.6295C15.455 13.575 15.595 13.575 15.875 13.575H16.775C17.055 13.575 17.195 13.575 17.302 13.6295C17.3961 13.6774 17.4726 13.7539 17.5205 13.848C17.575 13.955 17.575 14.095 17.575 14.375V15.275C17.575 15.555 17.575 15.695 17.5205 15.802C17.4726 15.8961 17.3961 15.9726 17.302 16.0205C17.195 16.075 17.055 16.075 16.775 16.075H15.875C15.595 16.075 15.455 16.075 15.348 16.0205C15.2539 15.9726 15.1774 15.8961 15.1295 15.802C15.075 15.695 15.075 15.555 15.075 15.275V14.375ZM18.075 17.375C18.075 17.095 18.075 16.955 18.1295 16.848C18.1774 16.7539 18.2539 16.6774 18.348 16.6295C18.455 16.575 18.595 16.575 18.875 16.575H19.775C20.055 16.575 20.195 16.575 20.302 16.6295C20.3961 16.6774 20.4726 16.7539 20.5205 16.848C20.575 16.955 20.575 17.095 20.575 17.375V18.275C20.575 18.555 20.575 18.695 20.5205 18.802C20.4726 18.8961 20.3961 18.9726 20.302 19.0205C20.195 19.075 20.055 19.075 19.775 19.075H18.875C18.595 19.075 18.455 19.075 18.348 19.0205C18.2539 18.9726 18.1774 18.8961 18.1295 18.802C18.075 18.695 18.075 18.555 18.075 18.275V17.375ZM15.1295 19.848C15.075 19.955 15.075 20.095 15.075 20.375V21.275C15.075 21.555 15.075 21.695 15.1295 21.802C15.1774 21.8961 15.2539 21.9726 15.348 22.0205C15.455 22.075 15.595 22.075 15.875 22.075H16.775C17.055 22.075 17.195 22.075 17.302 22.0205C17.3961 21.9726 17.4726 21.8961 17.5205 21.802C17.575 21.695 17.575 21.555 17.575 21.275V20.375C17.575 20.095 17.575 19.955 17.5205 19.848C17.4726 19.7539 17.3961 19.6774 17.302 19.6295C17.195 19.575 17.055 19.575 16.775 19.575H15.875C15.595 19.575 15.455 19.575 15.348 19.6295C15.2539 19.6774 15.1774 19.7539 15.1295 19.848ZM21.075 14.375C21.075 14.095 21.075 13.955 21.1295 13.848C21.1774 13.7539 21.2539 13.6774 21.348 13.6295C21.455 13.575 21.595 13.575 21.875 13.575H22.775C23.055 13.575 23.195 13.575 23.302 13.6295C23.3961 13.6774 23.4726 13.7539 23.5205 13.848C23.575 13.955 23.575 14.095 23.575 14.375V15.275C23.575 15.555 23.575 15.695 23.5205 15.802C23.4726 15.8961 23.3961 15.9726 23.302 16.0205C23.195 16.075 23.055 16.075 22.775 16.075H21.875C21.595 16.075 21.455 16.075 21.348 16.0205C21.2539 15.9726 21.1774 15.8961 21.1295 15.802C21.075 15.695 21.075 15.555 21.075 15.275V14.375ZM21.1295 19.848C21.075 19.955 21.075 20.095 21.075 20.375V21.275C21.075 21.555 21.075 21.695 21.1295 21.802C21.1774 21.8961 21.2539 21.9726 21.348 22.0205C21.455 22.075 21.595 22.075 21.875 22.075H22.775C23.055 22.075 23.195 22.075 23.302 22.0205C23.3961 21.9726 23.4726 21.8961 23.5205 21.802C23.575 21.695 23.575 21.555 23.575 21.275V20.375C23.575 20.095 23.575 19.955 23.5205 19.848C23.4726 19.7539 23.3961 19.6774 23.302 19.6295C23.195 19.575 23.055 19.575 22.775 19.575H21.875C21.595 19.575 21.455 19.575 21.348 19.6295C21.2539 19.6774 21.1774 19.7539 21.1295 19.848ZM18.492 1H18.525H20.125H20.158H20.158C20.6899 0.999988 21.1385 0.999978 21.5058 1.02999C21.8903 1.06141 22.2579 1.12978 22.6075 1.30791C23.1391 1.57875 23.5713 2.01092 23.8421 2.54248C24.0202 2.89208 24.0886 3.2597 24.12 3.64422C24.15 4.01155 24.15 4.46006 24.15 4.99203V5.025V6.625V6.65797C24.15 7.18995 24.15 7.63845 24.12 8.00578C24.0886 8.3903 24.0202 8.75793 23.8421 9.10752C23.5713 9.63908 23.1391 10.0713 22.6075 10.3421C22.2579 10.5202 21.8903 10.5886 21.5058 10.62C21.1384 10.65 20.6899 10.65 20.158 10.65H20.125H18.525H18.492C17.9601 10.65 17.5116 10.65 17.1442 10.62C16.7597 10.5886 16.3921 10.5202 16.0425 10.3421C15.5109 10.0713 15.0787 9.63908 14.8079 9.10752C14.6298 8.75793 14.5614 8.3903 14.53 8.00578C14.5 7.63845 14.5 7.18995 14.5 6.65798V6.65796V6.625V5.025V4.99204V4.99202C14.5 4.46005 14.5 4.01155 14.53 3.64422C14.5614 3.2597 14.6298 2.89208 14.8079 2.54248C15.0787 2.01092 15.5109 1.57875 16.0425 1.30791C16.3921 1.12978 16.7597 1.06141 17.1442 1.02999C17.5115 0.999978 17.9601 0.999988 18.492 1H18.492ZM17.2786 2.67451C16.9961 2.69759 16.8698 2.73821 16.7916 2.77807C16.5705 2.89072 16.3907 3.07047 16.2781 3.29156C16.2382 3.36979 16.1976 3.4961 16.1745 3.77859C16.1506 4.0707 16.15 4.45134 16.15 5.025V6.625C16.15 7.19867 16.1506 7.5793 16.1745 7.87142C16.1976 8.1539 16.2382 8.28021 16.2781 8.35844C16.3907 8.57953 16.5705 8.75928 16.7916 8.87193C16.8698 8.91179 16.9961 8.95241 17.2786 8.97549C17.5707 8.99936 17.9513 9 18.525 9H20.125C20.6987 9 21.0793 8.99936 21.3714 8.97549C21.6539 8.95241 21.7802 8.91179 21.8584 8.87193C22.0795 8.75928 22.2593 8.57953 22.3719 8.35844C22.4118 8.28021 22.4524 8.1539 22.4755 7.87142C22.4994 7.5793 22.5 7.19867 22.5 6.625V5.025C22.5 4.45134 22.4994 4.0707 22.4755 3.77859C22.4524 3.4961 22.4118 3.36979 22.3719 3.29156C22.2593 3.07047 22.0795 2.89072 21.8584 2.77807C21.7802 2.73821 21.6539 2.69759 21.3714 2.67451C21.0793 2.65064 20.6987 2.65 20.125 2.65H18.525C17.9513 2.65 17.5707 2.65064 17.2786 2.67451ZM18.075 5.375C18.075 5.09498 18.075 4.95496 18.1295 4.84801C18.1774 4.75393 18.2539 4.67743 18.348 4.6295C18.455 4.575 18.595 4.575 18.875 4.575H19.775C20.055 4.575 20.195 4.575 20.302 4.6295C20.3961 4.67743 20.4726 4.75393 20.5205 4.84801C20.575 4.95496 20.575 5.09498 20.575 5.375V6.275C20.575 6.55503 20.575 6.69504 20.5205 6.802C20.4726 6.89608 20.3961 6.97257 20.302 7.0205C20.195 7.075 20.055 7.075 19.775 7.075H18.875C18.595 7.075 18.455 7.075 18.348 7.0205C18.2539 6.97257 18.1774 6.89608 18.1295 6.802C18.075 6.69504 18.075 6.55503 18.075 6.275V5.375Z" fill="url(#paint0_linear_1008_17)"/>
<defs>
<linearGradient id="paint0_linear_1008_17" x1="2.97065" y1="4.29457" x2="19.9141" y2="22.65" gradientUnits="userSpaceOnUse">
<stop stop-color="#2E94D7"/>
<stop offset="1" stop-color="#66B1E3"/>
</linearGradient>
</defs>
</svg>
