<svg width="26" height="25" viewBox="0 0 26 25" fill="none" xmlns="http://www.w3.org/2000/svg">
<path fill-rule="evenodd" clip-rule="evenodd" d="M13 24C19.3513 24 24.5 18.8513 24.5 12.5C24.5 6.14873 19.3513 1 13 1C6.64873 1 1.5 6.14873 1.5 12.5C1.5 18.8513 6.64873 24 13 24ZM16.5904 12.5687C16.917 12.8953 17.4466 12.8953 17.7732 12.5687C18.0998 12.2421 18.0998 11.7125 17.7732 11.3859L13.5914 7.20406C13.2648 6.87744 12.7352 6.87744 12.4086 7.20406L8.22678 11.3859C7.90016 11.7125 7.90016 12.2421 8.22678 12.5687C8.5534 12.8953 9.08296 12.8953 9.40958 12.5687L12.1636 9.81461V17.7273C12.1636 18.1892 12.5381 18.5636 13 18.5636C13.4619 18.5636 13.8364 18.1892 13.8364 17.7273V9.81461L16.5904 12.5687Z" fill="url(#paint0_linear_1008_274)"/>
<defs>
<linearGradient id="paint0_linear_1008_274" x1="2" y1="4.5" x2="20" y2="24" gradientUnits="userSpaceOnUse">
<stop stop-color="#2E94D7"/>
<stop offset="1" stop-color="#66B1E3"/>
</linearGradient>
</defs>
</svg>
